<svg width="22" height="18" viewBox="0 0 22 18" fill="none" xmlns="http://www.w3.org/2000/svg">
<path fill-rule="evenodd" clip-rule="evenodd" d="M1.29101 1.30837H20.615L20.6057 16.6919H1.29969L1.29101 1.30837ZM0.0307069 17.4649C0.185718 18.173 1.25424 17.9743 2.02628 17.9743H19.4221C22.2547 17.9743 21.897 18.2899 21.897 15.4563C21.897 14.6748 21.9354 0.819387 21.8824 0.545254C21.743 -0.175746 20.6612 0.0259652 19.8884 0.0259652H2.4926C-0.340363 0.0259652 0.0177257 -0.289804 0.0177257 2.544C0.0177257 4.20588 0.0177257 5.86771 0.0177257 7.52959C0.0177257 8.07106 -0.0297783 17.1885 0.0307471 17.4649H0.0307069Z" fill="#007ABE"/>
<path fill-rule="evenodd" clip-rule="evenodd" d="M10.2703 14.1243L6.43106 14.1277C6.40047 13.2727 6.37728 12.7632 6.79184 12.1509C7.45947 11.165 9.09586 11.0188 9.90118 12.1374C10.3208 12.7203 10.296 13.2811 10.2703 14.1242V14.1243ZM7.08277 8.96423C6.95874 8.21273 7.53892 7.58452 8.16636 7.50491C9.86682 7.28913 10.1839 9.78225 8.53622 10.0367C7.77073 10.1549 7.18807 9.60228 7.08277 8.96423ZM6.54539 10.6142C6.45738 10.7097 6.30369 10.814 6.21114 10.8902C5.92764 11.1237 5.60444 11.5781 5.43636 11.9412C5.08238 12.7061 5.17095 13.2191 5.1423 14.1251L3.86564 14.1266L3.86355 3.88042L12.8332 3.8725L12.8371 14.1277L11.5591 14.1277C11.5281 13.2482 11.6216 12.7374 11.2828 11.9781C11.0744 11.5113 10.8417 11.2207 10.5115 10.9164L10.157 10.6142C10.4292 10.219 10.6811 10.0363 10.8384 9.3939C11.2132 7.86336 10.106 6.22343 8.37458 6.21503C7.21403 6.2094 6.38098 6.91203 6.01377 7.71731C5.79072 8.20658 5.71978 8.78824 5.85655 9.3685C6.04379 10.1629 6.47221 10.4436 6.54531 10.6141L6.54539 10.6142ZM3.08062 2.61794C2.58383 2.76198 2.58102 3.07317 2.58126 3.61999L2.5813 14.3086C2.58122 14.8245 2.55723 15.2058 3.0049 15.3696C3.26995 15.4666 10.9872 15.4101 12.1049 15.4101C14.3533 15.4101 14.1198 15.7344 14.1198 12.838V3.69173C14.12 2.39357 13.8099 2.59017 12.1766 2.59017C11.1811 2.59017 3.35001 2.53985 3.08062 2.61794Z" fill="#007ABE"/>
<path fill-rule="evenodd" clip-rule="evenodd" d="M17.2558 12.8423C18.0171 12.622 18.3587 13.8421 17.5693 14.0689C16.7947 14.2914 16.3395 13.1073 17.2558 12.8423ZM17.0222 11.5688C16.0964 11.7489 15.2689 12.6808 15.5059 13.8442C15.6903 14.75 16.6145 15.5686 17.7605 15.3407C18.6835 15.1571 19.493 14.2474 19.2759 13.0948C19.1044 12.1845 18.2013 11.3395 17.0222 11.5688V11.5688Z" fill="#007ABE"/>
<path fill-rule="evenodd" clip-rule="evenodd" d="M18.4817 5.86419C17.6541 6.14548 18.0814 7.31929 18.8593 7.07868C19.6642 6.8297 19.281 5.59251 18.4817 5.86419Z" fill="#007ABE"/>
<path fill-rule="evenodd" clip-rule="evenodd" d="M15.9081 8.41724C15.0486 8.66554 15.4503 9.86672 16.2344 9.64938C17.0344 9.42761 16.7046 8.18716 15.9081 8.41724Z" fill="#007ABE"/>
<path fill-rule="evenodd" clip-rule="evenodd" d="M18.5225 8.41307C17.6801 8.64468 18.0293 9.85398 18.8219 9.65263C19.1209 9.57668 19.3865 9.27172 19.2895 8.87444C19.2215 8.59581 18.9025 8.30862 18.5226 8.41307H18.5225Z" fill="#007ABE"/>
<path fill-rule="evenodd" clip-rule="evenodd" d="M18.5243 3.28507C17.6847 3.51524 18.0229 4.72687 18.8222 4.52452C19.122 4.44864 19.3869 4.14272 19.2891 3.74544C19.221 3.4687 18.9024 3.18146 18.5243 3.28507Z" fill="#007ABE"/>
<path fill-rule="evenodd" clip-rule="evenodd" d="M15.8889 3.30303C14.9957 3.62209 15.5281 4.76359 16.2617 4.51036C17.0717 4.23068 16.6421 3.03404 15.8889 3.30303Z" fill="#007ABE"/>
<path fill-rule="evenodd" clip-rule="evenodd" d="M15.8525 5.87862C15.0027 6.2435 15.559 7.35618 16.2977 7.06228C17.0826 6.75005 16.5985 5.55835 15.8525 5.87862Z" fill="#007ABE"/>
</svg>
