<svg width="11" height="13" viewBox="0 0 11 13" fill="none" xmlns="http://www.w3.org/2000/svg">
<path d="M6.95362 8.22159C7.98151 8.22159 8.96731 7.81326 9.69414 7.08643C10.421 6.35959 10.8293 5.3738 10.8293 4.3459C10.8293 3.31801 10.421 2.33221 9.69414 1.60538C8.96731 0.878545 7.98151 0.470215 6.95362 0.470215H3.07793C2.94088 0.470215 2.80944 0.524659 2.71253 0.62157C2.61562 0.718481 2.56117 0.84992 2.56117 0.986973V7.18807H1.0109C0.873846 7.18807 0.742407 7.24252 0.645496 7.33943C0.548585 7.43634 0.494141 7.56778 0.494141 7.70483C0.494141 7.84188 0.548585 7.97332 0.645496 8.07023C0.742407 8.16714 0.873846 8.22159 1.0109 8.22159H2.56117V9.2551H1.0109C0.873846 9.2551 0.742407 9.30955 0.645496 9.40646C0.548585 9.50337 0.494141 9.63481 0.494141 9.77186C0.494141 9.90892 0.548585 10.0404 0.645496 10.1373C0.742407 10.2342 0.873846 10.2886 1.0109 10.2886H2.56117V12.3557C2.56117 12.4927 2.61562 12.6241 2.71253 12.7211C2.80944 12.818 2.94088 12.8724 3.07793 12.8724C3.21498 12.8724 3.34642 12.818 3.44334 12.7211C3.54025 12.6241 3.59469 12.4927 3.59469 12.3557V10.2886H6.69524C6.83229 10.2886 6.96373 10.2342 7.06064 10.1373C7.15755 10.0404 7.212 9.90892 7.212 9.77186C7.212 9.63481 7.15755 9.50337 7.06064 9.40646C6.96373 9.30955 6.83229 9.2551 6.69524 9.2551H3.59469V8.22159H6.95362ZM3.59469 1.50373H6.95362C7.70741 1.50373 8.43033 1.80317 8.96334 2.33618C9.49635 2.86919 9.79579 3.59211 9.79579 4.3459C9.79579 5.09969 9.49635 5.82261 8.96334 6.35562C8.43033 6.88863 7.70741 7.18807 6.95362 7.18807H3.59469V1.50373Z" fill="#929292"/>
</svg>
