<svg width="23" height="23" viewBox="0 0 23 23" fill="none" xmlns="http://www.w3.org/2000/svg">
<path d="M21.203 23L14.135 15.8946C12.5787 17.0632 10.6893 17.6966 8.74679 17.7012H8.74488L8.64192 17.7021C6.34994 17.7021 4.15183 16.7868 2.53116 15.1576C0.910486 13.5283 0 11.3186 0 9.01446L0.000953328 8.9052V8.91095C0.000953328 6.54762 0.934841 4.28109 2.59717 2.60996C4.2595 0.93883 6.51411 0 8.865 0C11.2159 0 13.4705 0.93883 15.1328 2.60996C16.7952 4.28109 17.729 6.54762 17.729 8.91095C17.7044 10.8721 17.0697 12.7763 15.9139 14.3564L15.932 14.3306L23 21.4359L21.203 23ZM8.865 2.40743C7.15841 2.35196 5.49971 2.97981 4.25332 4.15304C3.00693 5.32627 2.27481 6.94892 2.2178 8.66448C2.16078 10.38 2.78355 12.0482 3.94927 13.3024C5.11498 14.5567 6.7283 15.2944 8.43477 15.3536C10.1412 15.4127 11.8013 14.7885 13.0502 13.6179C14.2991 12.4474 15.0346 10.8263 15.0953 9.11089C15.156 7.39545 14.5368 5.72596 13.3738 4.46921C12.2107 3.21245 10.599 2.47123 8.89265 2.40839H8.86405H8.86595L8.865 2.40743Z" fill="#007ABE"/>
</svg>
