<svg width="35" height="35" viewBox="0 0 35 35" fill="none" xmlns="http://www.w3.org/2000/svg">
<path fill-rule="evenodd" clip-rule="evenodd" d="M28.0389 31.7012C27.9076 32.2817 27.5717 32.6111 26.95 32.7579C25.7743 32.8407 24.3776 32.7752 23.1778 32.7752C18.7833 32.7752 14.3889 32.7752 9.99444 32.7752C8.73985 32.7752 7.50258 33.0541 7.04116 31.9347C6.87211 31.5246 6.9409 30.6834 6.9409 30.1748L6.94087 14.0502C6.94024 13.5548 6.87455 13.6085 7.14789 13.3381C8.19115 12.3064 17.2697 3.07789 17.5 2.95717C17.676 3.05912 22.3654 7.81665 22.4269 7.87866C23.2526 8.71039 24.0446 9.51693 24.8758 10.3453C25.626 11.093 26.6063 12.1341 27.327 12.8099C27.4362 12.9122 27.5177 13.0321 27.6283 13.1321C28.0767 13.5373 28.0657 13.505 28.0624 13.9323C28.0291 18.1932 28.062 22.5751 28.062 26.8482C28.062 28.4008 28.1384 30.1915 28.0389 31.7012ZM0 17.3962V17.7405C0.107044 17.9685 0.0565828 18.0759 0.238193 18.3101C0.663674 18.8591 1.31603 18.9765 1.88912 18.6143C2.166 18.4393 3.19794 17.2258 3.4884 17.0466C3.54613 16.9122 3.8639 16.6298 3.97297 16.5221C4.06774 16.4284 4.13197 16.3627 4.22522 16.2674C4.39119 16.0978 4.35665 16.0925 4.52732 16.0229L4.52199 17.0247V17.6117V18.1988V18.7859V19.3729V19.96V20.5471V21.1341V21.7212V22.3082V22.8953V23.4824V24.0694V24.6565V25.2435V25.8306V26.4176V27.0047V27.5918C4.51244 29.3104 4.53642 31.0378 4.52107 32.7579C4.51495 33.4421 4.49113 34.201 5.18522 34.663C5.47109 34.8533 5.72368 34.9753 6.14288 34.9917C6.56068 35.008 7.04386 34.996 7.46667 34.9922C10.8963 34.9613 14.341 34.99 17.7722 34.9928C21.2026 34.9955 24.6498 34.9538 28.0778 34.9917C28.4802 34.9962 28.9187 35.0242 29.2928 34.9203C29.6237 34.8285 29.8926 34.6382 30.0816 34.4234C30.5509 33.8903 30.4887 33.0671 30.4794 32.21C30.4605 30.4779 30.4876 28.7358 30.478 27.0047V26.4176V25.8306V25.2435V24.6565V24.0694V23.4824V22.8953V22.3082V21.7212V21.1341V20.5471V19.96V19.3729V18.7859L30.4732 16.0229C30.6546 16.1421 31.3663 16.8619 31.4478 17.013C31.5786 17.0787 32.613 18.1198 32.6783 18.2514C32.8431 18.3415 32.9267 18.4802 33.0945 18.5917C33.3159 18.7389 33.3671 18.7254 33.6 18.8036C34.1705 18.9023 34.7098 18.5835 34.9156 18.0349L34.9856 17.8575C34.9879 17.8411 34.9946 17.8371 35 17.8274V17.4106C34.8475 17.1299 34.9453 17.0494 34.6693 16.7713L33.2687 15.3621C32.6365 14.7267 32.0339 14.1191 31.4022 13.4834L21.1286 3.15817C20.9201 2.94651 20.3263 2.40238 20.2051 2.20336C20.0827 2.15009 19.9778 2.0121 19.8782 1.91172L18.4196 0.444254C17.9531 -0.0509753 18.0697 0.216158 17.6963 0H17.2858L17.0756 0.0812349C16.894 0.149287 16.7072 0.277667 16.5793 0.404323L0.940752 16.1712C0.75486 16.3582 0.587776 16.5409 0.395255 16.7179C0.261473 16.8409 0.242982 16.8456 0.150052 17.0198C0.0604205 17.1878 0.0715214 17.2618 0 17.3962H0Z" fill="#A3A3A3"/>
</svg>
