<svg width="41" height="33" viewBox="0 0 41 33" fill="none" xmlns="http://www.w3.org/2000/svg">
<path fill-rule="evenodd" clip-rule="evenodd" d="M26.9664 29.0978C23.4613 31.045 19.0086 31.0853 15.2698 29.9181C14.8819 29.797 14.398 29.5829 14.0178 29.4189C13.1784 29.057 13.3289 29.2927 13.3307 28.3546C13.333 27.1713 13.3438 25.978 13.3287 24.7957C13.3006 22.6017 13.3407 20.8772 14.606 19.0133C16.7792 15.8117 21.3418 15.2081 24.336 17.6088C25.5483 18.5809 26.8708 20.5542 26.8608 22.1429C26.8464 24.4378 26.9664 26.7816 26.9664 29.0978ZM20.9758 32.1237H19.3778C16.768 31.997 14.1676 31.2489 11.8189 29.8673C9.19662 28.3245 6.92014 25.8367 5.57052 23.1129C4.04687 20.0375 4.00238 18.291 3.89012 15.0762C3.86128 14.2535 3.7242 12.9833 4.78851 12.7472C5.82363 12.5177 9.91922 12.6942 11.2616 12.6942H30.7335C31.8271 12.6942 32.9356 12.7153 34.0269 12.6903C34.9714 12.6688 36.0796 12.4726 36.3197 13.6336C36.5994 14.9857 36.2984 18.1891 35.9727 19.5819C35.224 22.7844 33.6016 25.5268 31.2215 27.7811C28.3688 30.4831 24.7139 31.9417 20.9758 32.1237ZM11.7921 28.1953C9.86646 26.6758 8.06765 24.9437 6.99344 22.6979C5.43594 19.442 5.31916 17.6634 5.31916 14.0744H5.00077C14.9932 14.0744 24.9857 14.0744 34.9781 14.0744C34.9781 17.5714 34.8198 19.5308 33.3038 22.6979C32.4255 24.5328 30.1762 27.1104 28.4521 28.1953C28.4754 26.5257 28.4331 24.5485 28.3543 22.8783C28.279 21.2829 28.031 19.9841 27.1523 18.6132C23.7385 13.2874 16.319 13.5081 13.1377 18.6059C11.177 21.7481 12.2909 24.7399 11.7921 28.1953Z" fill="#A3A3A3"/>
<path fill-rule="evenodd" clip-rule="evenodd" d="M16.3549 23.0459C16.2209 21.0688 18.0265 19.1686 20.0137 19.1685C22.1136 19.1682 23.8841 20.6745 23.8915 22.8312C23.9086 27.8044 16.6913 28.0111 16.3549 23.0459ZM19.4321 17.7904C16.3987 18.2022 14.781 20.6663 14.9792 23.6258C15.0664 24.9268 15.8514 26.1107 16.8147 26.9388C18.9646 28.787 22.4498 28.3582 24.2131 26.1839C25.1357 25.0461 25.4788 23.6124 25.3042 22.1613C24.9619 19.3172 22.1915 17.4158 19.4321 17.7904Z" fill="#A3A3A3"/>
<path fill-rule="evenodd" clip-rule="evenodd" d="M21.873 23.2582C21.2466 25.6751 17.9737 24.7549 18.401 22.5982C18.8809 20.1753 22.4199 21.1479 21.873 23.2582ZM19.6976 19.7545C15.3117 20.5215 16.6161 26.7506 20.6192 26.0911C24.9073 25.3848 23.6768 19.0587 19.6976 19.7545Z" fill="#A3A3A3"/>
<path fill-rule="evenodd" clip-rule="evenodd" d="M34.7129 5.73982C33.3977 6.15319 33.7923 8.57361 35.6729 8.02756C36.8549 7.68436 36.6797 5.12171 34.7129 5.73982Z" fill="#A3A3A3"/>
<path fill-rule="evenodd" clip-rule="evenodd" d="M2.00482 0H38.2939C39.3966 0 40.2987 0.902159 40.2987 2.00482V10.2681C40.2987 11.3707 39.3966 12.2729 38.2939 12.2729H2.00482C0.902159 12.2729 0 11.3707 0 10.2681V2.00482C0 0.902159 0.902159 0 2.00482 0ZM2.30066 1.39247H38.2151C38.7229 1.39247 39.1384 1.80797 39.1384 2.31568V9.95704C39.1384 10.4649 38.7229 10.8804 38.2151 10.8804H2.30066C1.7928 10.8804 1.3773 10.4649 1.3773 9.95704V2.31568C1.3773 1.80797 1.7928 1.39247 2.30066 1.39247Z" fill="#A3A3A3"/>
</svg>
