<svg width="115" height="121" viewBox="0 0 115 121" fill="none" xmlns="http://www.w3.org/2000/svg">
<path d="M0.214592 2.78135C0.951923 0.645165 3.30375 -0.503188 5.47761 0.212989L10.016 1.70708C15.2536 3.6704 19.042 6.54745 21.6862 14.6971L111.323 25.2298C113.573 25.4891 115.187 27.4771 114.959 29.6997L110.28 74.6954C110.064 76.7699 108.272 78.3628 106.149 78.3628L37.0557 78.4121L32.4283 88.1052C31.7419 89.7475 31.8817 90.5625 31.9453 90.6736C32.0215 90.7724 32.708 91.1799 34.4369 91.1799H106.339C107.573 91.1799 108.768 91.7232 109.556 92.674L114.056 98.0453C115.505 99.7863 115.264 102.355 113.484 103.787C112.708 104.404 111.768 104.713 110.852 104.713C109.645 104.713 108.45 104.207 107.636 103.219L104.407 99.3418H95.877V101.145C100.136 102.404 103.276 106.257 103.276 110.838C103.276 116.444 98.6229 121 92.9149 121C87.1942 121 82.5541 116.444 82.5541 110.838C82.5541 106.244 85.6941 102.404 89.9529 101.145V99.3418H46.3613V101.145C50.6201 102.404 53.7601 106.257 53.7601 110.838C53.7601 116.444 49.1073 121 43.3993 121C37.6786 121 33.0385 116.444 33.0385 110.838C33.0385 106.244 36.1658 102.404 40.4246 101.145V99.3418H34.4369C29.0086 99.3418 26.339 97.1068 25.055 95.2423C23.7583 93.3531 22.6523 90.0562 24.8135 84.8454L30.0892 73.794L13.8934 17.5741C12.0627 11.5854 10.0796 10.4617 7.21924 9.38747L2.83339 7.94277C0.659533 7.22659 -0.510027 4.91753 0.214592 2.78135ZM88.4528 110.838C88.4528 113.233 90.436 115.172 92.8768 115.172C95.3176 115.172 97.3008 113.233 97.3008 110.838C97.3008 109.566 96.7287 108.43 95.8388 107.64V108.442C95.8388 110.047 94.504 111.369 92.8768 111.369C91.2368 111.369 89.902 110.06 89.902 108.442V107.627C89.0249 108.43 88.4528 109.566 88.4528 110.838ZM38.9753 110.838C38.9753 113.233 40.9585 115.172 43.3993 115.172C45.8401 115.172 47.8106 113.233 47.8106 110.838C47.8106 109.566 47.2512 108.43 46.3613 107.64V108.442C46.3613 110.047 45.0265 111.369 43.3993 111.369C41.7594 111.369 40.4246 110.06 40.4246 108.442V107.64C39.5474 108.43 38.9753 109.566 38.9753 110.838ZM37.7041 70.2502L50.2514 70.2378L48.9547 63.1502L35.5683 62.8291L37.7041 70.2502ZM66.5235 47.1103L65.8879 39.862L49.2471 38.3926L50.6709 46.1471L66.5235 47.1103ZM51.5354 50.8764L52.9465 58.5814L67.566 58.9272L66.9431 51.8025L51.5354 50.8764ZM65.4684 35.1328L64.8455 27.9834L46.9588 25.8842L48.3699 33.6387L65.4684 35.1328ZM70.2865 35.5526L87.4103 37.0467L87.5502 30.6505L69.6636 28.5514L70.2865 35.5526ZM70.6933 40.2819L71.3162 47.3943L87.1688 48.345L87.3086 41.7266L70.6933 40.2819ZM91.9106 48.629L104.547 49.3946L105.183 43.3071L92.0505 42.1588L91.9106 48.629ZM91.8089 53.2965L91.6818 59.5075L103.466 59.7915L104.064 54.0374L91.8089 53.2965ZM87.0671 53.0125L71.7357 52.0864L72.3459 59.0383L86.9273 59.3841L87.0671 53.0125ZM72.7527 63.7182L73.3248 70.2255L86.6984 70.2132L86.8383 64.0516L72.7527 63.7182ZM67.9728 63.607L53.8109 63.2613L55.0949 70.2378L68.5703 70.2255L67.9728 63.607ZM34.2081 58.1369L48.0903 58.4703L46.641 50.5924L31.78 49.7033L34.2081 58.1369ZM30.407 44.937L45.7766 45.8631L44.3273 37.9728L27.9789 36.5405L30.407 44.937ZM26.606 31.7248L43.4629 33.2065L42.0136 25.3039L24.1524 23.2048L26.606 31.7248ZM92.292 31.2185L92.1649 37.4789L105.678 38.6643L106.289 32.8608L92.292 31.2185ZM102.983 64.4343L91.5801 64.1627L91.453 70.2008L102.386 70.1885L102.983 64.4343Z" fill="#E0E0E0"/>
</svg>
