<svg width="21" height="29" viewBox="0 0 21 29" fill="none" xmlns="http://www.w3.org/2000/svg">
<path fill-rule="evenodd" clip-rule="evenodd" d="M9.9139 16.7802C9.53286 16.9873 9.44181 17.028 9.17032 17.3143C8.97557 17.5196 8.86758 17.8133 8.75824 18.15L8.70738 18.6945C8.71173 18.7017 8.71546 18.7117 8.71768 18.7175L8.76264 18.8904C8.88175 19.5141 9.18826 19.6821 9.29589 19.9302C9.37648 19.979 9.79377 20.6265 9.89504 20.7683C10.0863 21.0361 10.2995 21.3304 10.4794 21.616C10.6518 21.8207 11.2485 22.7314 11.4642 23.0321C11.825 23.5352 11.782 23.4197 11.7818 23.909C11.7817 24.301 11.7818 24.693 11.7819 25.0865L11.6672 25.0912L11.0823 25.0914H10.5005H9.91216H9.33031H8.74199H8.16015H7.57182H6.98996H6.40163H5.81979H5.23147H4.6496H4.06128L3.48124 25.0915C3.23037 25.0868 3.08292 25.0598 2.88413 24.9701C2.69801 24.8523 2.58883 24.7896 2.47411 24.6241C2.11617 24.2348 2.22544 23.4115 2.22027 22.7973C2.19145 19.3755 2.23089 15.8746 2.2216 12.4411C2.22039 11.9957 2.16996 10.7532 2.2709 10.4154C2.42181 9.91023 2.84787 9.5725 3.48323 9.56178L4.05944 9.56188H4.65138H5.22964H5.82157H6.3998H6.99174H7.56999H8.16193H8.74016H9.3321H9.91033H10.5023H11.0805L11.667 9.56213C12.449 9.56242 12.9569 10.0243 12.9744 10.7729C12.9936 11.5931 12.9747 12.4373 12.9749 13.2602C12.9754 14.9259 12.9774 16.5933 12.9748 18.2597C12.8399 18.1883 12.2972 17.6395 12.2442 17.5427C12.0687 17.4297 11.9316 17.2004 11.7514 17.0689C11.6608 17.0028 11.5572 16.9283 11.4488 16.8735C11.3479 16.8225 11.2279 16.7831 11.1423 16.7373C10.9122 16.6967 10.7594 16.656 10.5043 16.6649C10.266 16.6759 10.1291 16.7199 9.91387 16.7802H9.9139ZM2.89502 8.4205C2.715 8.47979 2.45802 8.58178 2.27836 8.63896C2.25895 8.66734 1.90872 8.88996 1.83896 8.95904C1.76198 9.03524 1.71201 9.09001 1.63605 9.16624C1.54909 9.25349 1.53545 9.30517 1.46016 9.35878C1.38859 9.53317 1.26325 9.6842 1.18016 9.90947C1.09968 10.1277 1.06812 10.2949 1.03392 10.5361L1.02344 11.128V11.7063V12.2982V12.8764V13.4684V14.0466V14.6386V15.2168V15.8087V16.3869V16.9789V17.5571V18.1491V18.7273V19.3192V19.8975V20.4894V21.0677V21.6596V22.2379V22.8298V23.408L1.02589 24L1.12525 24.5669C1.17311 24.9329 1.50304 25.3494 1.69469 25.545C1.84615 25.6995 1.92367 25.774 2.12368 25.9065C2.97955 26.4737 4.45685 26.2879 5.67176 26.2879C7.7575 26.2879 9.84324 26.2879 11.9278 26.2883L12.1718 26.925C12.3309 27.1578 12.4203 27.3841 12.5894 27.6105C12.9881 28.1444 13.2425 28.7598 13.7629 28.6657C14.0782 28.6087 14.2547 28.3386 14.2433 27.989C14.1788 27.6669 13.7429 27.2495 13.6001 26.9593C13.3782 26.7536 13.1143 26.1612 13.0342 25.7573C13.0058 25.6091 12.9701 25.4561 12.9958 25.3034C12.9004 25.1441 12.9923 23.5861 12.9593 23.2361C12.9089 23.1537 12.9074 23.0543 12.858 22.9539C12.7744 22.7841 12.4377 22.4181 12.4137 22.2692C12.4075 22.2643 12.3995 22.2576 12.3957 22.254L11.1612 20.491L10.2633 19.1999C10.1708 19.0591 9.98689 18.905 9.98245 18.7602L9.92211 18.6352C9.91186 18.5848 9.91227 18.5206 9.91596 18.4693C9.92273 18.3749 9.94461 18.3 9.98627 18.2185C10.0496 18.0946 10.1669 17.966 10.3166 17.9046C10.7685 17.7192 11.035 18.0242 11.2217 18.2126C11.6656 18.6604 12.0921 19.0833 12.5373 19.5299C12.9827 19.9767 13.4068 20.4015 13.8522 20.8481C14.1931 21.1899 14.5652 21.724 15.0677 21.427C15.224 21.3347 15.2683 21.2433 15.3419 21.0711C15.3936 20.8088 15.3288 20.6469 15.1963 20.4935C15.1547 20.5037 15.1641 20.5109 15.1717 20.4681L14.6124 19.907C14.5698 19.9177 14.5781 19.9258 14.5875 19.8829C14.5001 19.8293 14.4468 19.761 14.371 19.6856C14.3318 19.6466 14.3023 19.6226 14.2665 19.5849C14.1773 19.4912 14.2098 19.5584 14.1962 19.4589C14.1518 19.3948 14.1644 19.2979 14.1655 19.1994C14.1666 19.1017 14.1661 19.0039 14.1661 18.9062C14.1661 17.9796 14.1221 15.6264 14.1715 15.0309C14.2864 15.1194 14.5132 15.2864 14.5994 15.3884C14.6875 15.4423 14.7794 15.5241 14.845 15.5845C14.904 15.6388 14.8998 15.6346 14.9557 15.6802C15.0201 15.7326 15.0222 15.7043 15.0335 15.7761C15.1298 15.8348 15.1583 15.845 15.2126 15.9294C15.3273 15.9723 15.3576 16.0476 15.4532 16.1457C15.5333 16.228 15.6163 16.2804 15.6564 16.3748C15.7651 16.4135 15.7531 16.4145 15.8023 16.4973C15.9109 16.6219 16.0679 16.8005 16.1551 16.9706C16.6216 17.6051 16.5559 18.4216 16.5579 19.3113L16.5561 23.5285C16.5517 24.3677 16.8323 24.3164 16.8871 24.5661L16.9683 24.6401C17.0616 24.7442 17.2916 25.0169 17.3476 25.129C17.5254 25.298 19.1232 27.391 19.1844 27.5071C19.2666 27.5414 19.3827 27.7378 19.4535 27.8263C19.5571 27.9557 19.6212 28.0437 19.7235 28.1707C19.9154 28.4088 20.0175 28.6754 20.4476 28.674C20.7275 28.6424 20.9117 28.4852 20.9766 28.2455C21.0722 27.8921 20.8491 27.7084 20.7416 27.5073C20.6608 27.4711 19.7093 26.2046 19.5488 26.0051L19.4048 25.7844C19.315 25.7177 19.2227 25.5862 19.1504 25.4964L18.0652 24.0944C17.7137 23.6561 17.7547 23.7647 17.7541 23.4115L17.754 22.8229V22.2447V21.6528V21.0746V20.4826V19.9044V19.3124V18.7342L17.7432 18.1423L17.6663 17.5315C17.5983 17.3411 17.5653 17.1513 17.4845 16.9528C17.4443 16.8539 17.409 16.7618 17.3603 16.6659C17.3062 16.5592 17.2558 16.5125 17.2436 16.407L16.7445 15.7607C16.5726 15.5513 16.1937 15.2189 16.0395 15.0616C15.9819 15.0028 15.9722 14.9828 15.9088 14.9307L14.3808 13.6495C14.2666 13.5576 14.1661 13.5157 14.164 13.3209C14.1542 12.4107 14.2036 11.4243 14.1561 10.5239L14.0334 9.95051C13.7924 9.51344 13.9165 9.59994 13.5368 9.13943C13.2829 8.83148 12.8669 8.66897 12.7918 8.56564C12.5512 8.54903 12.4405 8.37033 11.6983 8.36509L7.92441 8.36507C6.97375 8.36507 3.57788 8.30931 2.895 8.42041L2.89502 8.4205Z" fill="#007ABE"/>
<path fill-rule="evenodd" clip-rule="evenodd" d="M4.61887 0.418576L4.06676 0.600706C3.8741 0.673241 3.66665 0.748753 3.47553 0.825363C3.27218 0.906849 3.06089 1.02468 2.86358 1.0863C2.78056 1.15554 2.40545 1.33593 2.29433 1.39849C2.19123 1.45653 2.11231 1.50648 2.01954 1.56231C1.93888 1.61083 1.81059 1.69998 1.72979 1.73725C1.53617 1.90368 1.14794 2.1314 0.819504 2.4107C0.649345 2.5554 0.0686677 3.02939 0 3.16998C0.105954 3.25753 0.190805 3.35401 0.292593 3.45619C0.395252 3.55923 0.51201 3.64163 0.577908 3.7694C0.653122 3.80101 0.761731 3.92006 0.81044 3.9893C0.965835 3.90987 0.973983 3.80172 1.10631 3.76631L1.29414 3.55889C1.35202 3.50547 1.4276 3.446 1.5011 3.38502C1.6377 3.27172 1.79285 3.15526 1.9495 3.04239C2.18771 2.8707 2.63313 2.53933 2.92181 2.43317C2.96654 2.34374 3.84446 1.92501 4.01061 1.92116C4.14877 1.77128 4.96738 1.57462 5.23102 1.49611L5.82367 1.3674L6.46166 1.27198C6.59632 1.24991 6.74819 1.22982 6.8871 1.24831C6.98978 1.17754 7.41236 1.20317 7.57009 1.20292L8.16203 1.21897C8.35162 1.22995 8.69199 1.21219 8.82864 1.30418C8.97414 1.28235 9.16144 1.32098 9.2997 1.35946L9.91047 1.48531C10.1249 1.53175 10.9358 1.77051 11.055 1.85652C11.2904 1.91574 12.1704 2.30241 12.2771 2.44931C12.4705 2.46389 13.0766 2.92495 13.217 3.02372C13.3997 3.15235 13.98 3.60819 14.0523 3.71763L14.3524 3.98941L14.556 3.80383L15.1754 3.16364C14.9826 2.78445 13.4465 1.73306 13.4244 1.70195C13.2517 1.63498 13.0126 1.468 12.8289 1.36436C12.7125 1.29874 12.6362 1.26381 12.521 1.20288L12.2133 1.02654C12.185 1.02423 11.1641 0.618399 11.1133 0.586239L10.4981 0.400791C10.1531 0.335076 9.82141 0.234203 9.45734 0.168968C9.09708 0.104467 8.70899 0.0618239 8.33404 0.0329834L7.57902 0.00856058C7.40909 0.0110326 7.20588 0.0407429 7.04893 0C6.91335 0.0750081 6.59725 0.0549342 6.41229 0.0744358C6.19926 0.0968673 6.00216 0.126669 5.79551 0.160431C5.37726 0.228755 5.00977 0.339493 4.61894 0.418507L4.61887 0.418576Z" fill="#007ABE"/>
<path fill-rule="evenodd" clip-rule="evenodd" d="M5.31126 2.68697C5.21059 2.78125 4.77002 2.89115 4.61874 2.92763C4.56424 2.9719 4.16412 3.12297 4.04766 3.18085C3.85152 3.27834 3.66971 3.37454 3.47957 3.46484C3.35574 3.56585 3.11577 3.68836 2.97781 3.77989C2.66608 3.98672 1.82971 4.61764 1.69336 4.86489C1.81197 4.94445 1.91541 5.07226 2.02187 5.17877C2.13361 5.29058 2.26605 5.38337 2.33659 5.52297L2.42948 5.58938C2.49364 5.6469 2.46496 5.63747 2.54273 5.67844C2.59266 5.62346 2.78996 5.41949 2.85536 5.38617C2.92086 5.30294 3.16051 5.11596 3.26789 5.03443C3.40124 4.93316 3.54537 4.83433 3.70246 4.73657C3.96251 4.57474 4.36421 4.30664 4.67695 4.22188C4.79433 4.11998 5.58357 3.84641 5.76776 3.85153C5.87008 3.75766 6.23637 3.71564 6.40301 3.69541C6.55355 3.66132 6.74831 3.62143 6.9065 3.64503C7.04299 3.55903 7.38216 3.59419 7.56791 3.59037L8.07083 3.60909L8.74014 3.68291L9.32276 3.80585C9.63126 3.85455 10.2793 4.07576 10.5008 4.20817C10.834 4.33063 11.175 4.54157 11.4435 4.70837C11.6022 4.80693 11.7299 4.89611 11.8783 5.00611C11.971 5.07485 12.217 5.26339 12.2626 5.31905C12.4199 5.45378 12.5274 5.53957 12.6637 5.66864L12.7979 5.56001L13.4987 4.84053C13.4509 4.77008 13.1821 4.51953 13.0871 4.44123C12.7714 4.18105 12.5136 3.97024 12.1512 3.73837C12.0158 3.65176 11.7845 3.53303 11.6631 3.44136C11.4757 3.36349 11.296 3.2449 11.0937 3.15833C10.8903 3.07135 10.6966 2.98305 10.4892 2.91184L9.9429 2.71973C9.81076 2.69611 9.35979 2.60819 9.27851 2.5417C8.952 2.57131 7.9256 2.21916 6.21543 2.50686C5.99363 2.54419 5.46862 2.69373 5.31128 2.68695L5.31126 2.68697Z" fill="#007ABE"/>
<path fill-rule="evenodd" clip-rule="evenodd" d="M5.81646 5.04644C5.71309 5.09217 5.34386 5.22754 5.25466 5.23127C5.20976 5.28774 4.56737 5.59331 4.30126 5.7748L3.66695 6.25332C3.57704 6.33415 3.58226 6.36186 3.47796 6.41922L3.45143 6.43175C3.42032 6.49 3.43073 6.47855 3.38965 6.53136C3.54541 6.76353 3.98058 7.05266 4.09445 7.27597C4.13646 7.29181 4.10508 7.27416 4.15946 7.31387C4.1769 7.3266 4.20359 7.35224 4.21984 7.36549C4.3548 7.20829 4.95802 6.72457 5.2291 6.6082C5.54163 6.39915 5.99841 6.21015 6.43248 6.1245L6.98544 6.01656L7.55286 5.97581L8.12955 6.0085L8.73591 6.11709C9.03643 6.16451 9.72308 6.43225 9.91636 6.58213C10.114 6.66606 10.5877 7.00267 10.7489 7.15983C10.8441 7.2526 10.8828 7.29559 10.9736 7.36528L11.0458 7.3136L11.8089 6.53417L11.7449 6.44921C11.6652 6.39322 11.6847 6.4122 11.6515 6.33584C11.5684 6.30338 11.0857 5.8935 10.8296 5.73234L9.94307 5.24627L9.29235 5.00211C9.18088 5.01023 8.88859 4.93206 8.77286 4.89192C8.21816 4.8338 7.80547 4.75552 7.21586 4.79615C6.95705 4.81398 6.73755 4.84529 6.4835 4.88894C6.24396 4.93007 6.03633 5.00568 5.81641 5.04647L5.81646 5.04644Z" fill="#007ABE"/>
<path fill-rule="evenodd" clip-rule="evenodd" d="M4.62308 22.2472C4.72082 22.4807 4.79471 22.6033 5.03523 22.675C5.29028 22.7509 5.50798 22.6512 5.64397 22.506C6.0025 22.1232 5.73987 21.5657 5.24372 21.5113C4.81153 21.5065 4.58603 21.8039 4.62308 22.2472Z" fill="#007ABE"/>
<path fill-rule="evenodd" clip-rule="evenodd" d="M10.1478 15.5164C10.2074 15.4874 10.2737 15.4606 10.3237 15.4256C10.3851 15.3828 10.4143 15.3305 10.472 15.3079L10.5162 15.2161C10.6329 14.9024 10.5472 14.9226 10.5406 14.6612C10.4539 14.6023 10.5004 14.653 10.4701 14.5591C10.3307 14.4572 10.2168 14.332 9.91396 14.3446C9.59953 14.4059 9.35317 14.6311 9.39534 15.0106C9.43608 15.3774 9.73492 15.561 10.1479 15.5165L10.1478 15.5164Z" fill="#007ABE"/>
<path fill-rule="evenodd" clip-rule="evenodd" d="M9.91381 13.138C10.2078 13.151 10.3358 13.0473 10.4664 12.9115L10.4877 12.8768C10.6129 12.5817 10.5505 12.6352 10.5698 12.3437C10.4971 12.2822 10.5087 12.2682 10.474 12.1777C10.4082 12.1458 10.3598 12.071 10.2503 12.0153C10.1476 11.9632 10.0417 11.9487 9.91381 11.9542C9.21209 12.0984 9.20605 13.0029 9.91381 13.138Z" fill="#007ABE"/>
<path fill-rule="evenodd" clip-rule="evenodd" d="M4.63538 19.8938L4.68328 20.0188C4.86592 20.1813 4.86535 20.2994 5.24213 20.3109C5.98619 20.2281 6.00052 19.2061 5.23093 19.1218C4.80718 19.1349 4.54533 19.4348 4.63538 19.8938Z" fill="#007ABE"/>
<path fill-rule="evenodd" clip-rule="evenodd" d="M7.57354 13.1417C7.81486 13.1333 7.96186 13.0382 8.06928 12.9071C8.24527 12.6924 8.1655 12.5745 8.17175 12.3135L8.1284 12.257C7.97554 12.0718 7.88369 11.959 7.57354 11.9507C6.79835 12.0424 6.8233 13.0649 7.57354 13.1418V13.1417Z" fill="#007ABE"/>
<path fill-rule="evenodd" clip-rule="evenodd" d="M4.64738 17.5606L4.63541 17.5682C4.7516 17.6666 4.73592 17.7304 4.87977 17.8255C5.01725 17.9163 5.13183 17.9242 5.32074 17.9156C5.58577 17.8208 5.80166 17.6828 5.80168 17.3267C5.80173 16.9702 5.58817 16.8327 5.32074 16.7375C4.78771 16.7145 4.54983 17.0392 4.64738 17.5606Z" fill="#007ABE"/>
<path fill-rule="evenodd" clip-rule="evenodd" d="M5.22971 15.5313C5.99801 15.4501 5.9884 14.4253 5.24525 14.344C4.43024 14.3379 4.3821 15.5012 5.22971 15.5313Z" fill="#007ABE"/>
<path fill-rule="evenodd" clip-rule="evenodd" d="M7.7198 17.9144C7.82667 17.8739 7.86254 17.8755 7.95968 17.8006C8.05128 17.73 8.05824 17.6722 8.1313 17.619L8.15167 17.5611C8.25616 17.0766 8.08985 16.879 7.7198 16.7387C7.31628 16.7164 7.00272 16.9176 7.00293 17.3267C7.00316 17.7333 7.31464 17.937 7.7198 17.9144Z" fill="#007ABE"/>
<path fill-rule="evenodd" clip-rule="evenodd" d="M7.63606 20.3108C7.99258 20.267 7.95955 20.1363 8.12683 20.018C8.15148 19.9294 8.13896 19.918 8.19991 19.8538C8.17215 19.6161 8.17766 19.4667 8.04404 19.3135C7.94925 19.2047 7.78008 19.1278 7.57156 19.1218C6.79943 19.2027 6.80399 20.2953 7.63603 20.3108H7.63606Z" fill="#007ABE"/>
<path fill-rule="evenodd" clip-rule="evenodd" d="M4.63931 12.301C4.6411 12.5472 4.56762 12.6885 4.72336 12.8931C4.83273 13.0368 4.98469 13.1336 5.2297 13.142C6.01525 13.0545 5.97209 12.0159 5.2297 11.9512C4.81075 11.9641 4.78443 12.1794 4.63931 12.301V12.301Z" fill="#007ABE"/>
<path fill-rule="evenodd" clip-rule="evenodd" d="M7.57349 15.5313C8.38265 15.5081 8.39618 14.4376 7.63784 14.3423C6.81483 14.3566 6.79043 15.4414 7.57349 15.5313Z" fill="#007ABE"/>
<path fill-rule="evenodd" clip-rule="evenodd" d="M7.01762 22.2703L7.02458 22.2685C7.10932 22.4977 7.29767 22.7023 7.60265 22.6966C7.93729 22.6904 8.08868 22.4973 8.1765 22.2412C8.24385 21.8254 7.99863 21.5523 7.63378 21.5098C7.18947 21.5187 6.96582 21.8006 7.0176 22.2703H7.01762Z" fill="#007ABE"/>
</svg>
