<svg width="31" height="19" viewBox="0 0 31 19" fill="none" xmlns="http://www.w3.org/2000/svg">
<g clip-path="url(#clip0_7_12522)">
<path fill-rule="evenodd" clip-rule="evenodd" d="M11.818 13.5035L11.8201 16.4025L14.7181 16.3989L14.7135 14.1591L11.818 13.5035ZM10.844 14.5419L3.19369 14.5421L3.20051 15.3268L10.8346 15.3343L10.844 14.5419V14.5419ZM10.6055 10.8886L10.3458 12.123L16.2915 13.4977L16.5685 12.2607L10.6055 10.8886V10.8886ZM27.9112 9.69638C27.8295 9.99189 27.6127 10.8584 27.6087 11.1422L28.4037 11.3155C28.4118 11.3149 28.4349 11.32 28.4407 11.3062C28.4465 11.2925 28.4657 11.3006 28.4771 11.295C28.5673 11.1122 28.7819 10.1385 28.7797 9.88676L27.9112 9.69638H27.9112ZM26.9275 9.55913C25.8182 9.65484 25.4017 9.56017 24.389 9.32707L17.7079 7.76322C16.8086 7.54602 9.60732 5.81241 8.79095 5.68949L8.01447 9.24558L26.0625 13.4464L26.9275 9.55918L26.9275 9.55913ZM29.8699 5.94485C26.3965 5.17395 22.9941 4.33872 19.4477 3.50795L11.6304 1.67952C11.0951 1.5558 9.48438 1.10139 9.03214 1.10094L8.27471 4.5181C8.56256 4.66343 13.2841 5.71784 14.0057 5.88304L22.6487 7.90587C24.6952 8.38031 26.6167 9.19661 28.3745 7.9419C28.9272 7.54736 29.8953 6.52289 29.8699 5.94485V5.94485ZM7.8267 5.44741C7.43121 5.36062 7.15202 5.29048 7.20628 4.78328L7.91959 1.61568C8.15372 0.591801 8.13239 -0.123779 8.87263 0.0178795C9.58243 0.15369 10.2638 0.346897 10.9522 0.506052C13.6916 1.13955 16.4762 1.79942 19.2239 2.44174C22.0001 3.09066 24.7316 3.7245 27.4908 4.37674L30.5942 5.10367C30.9683 5.21118 31.0777 5.43189 30.9481 5.89712C30.7603 6.57121 30.4712 7.16536 30.1067 7.63172C29.4746 8.44034 29.2067 8.48311 28.8951 8.77892C28.8253 8.84529 28.8632 8.80519 28.8255 8.86506C29.3354 9.09996 29.9578 8.91706 29.8546 9.68696C29.7969 10.1179 29.6093 10.7764 29.5107 11.2078C29.4002 11.6911 29.3722 12.405 28.8742 12.4381C28.5164 12.4619 27.7858 12.154 27.3579 12.1351C27.2262 12.6046 27.1249 13.1538 27.0128 13.6496C26.8889 14.1973 26.8546 14.6675 26.1709 14.5142C25.4024 14.3419 17.8481 12.504 17.512 12.5088C16.9736 15.1984 17.0434 14.5664 15.7049 14.4042C15.4633 17.4532 16.3787 17.4043 14.1801 17.4043C10.5426 17.4043 10.9522 17.6601 10.8294 16.3211L3.20713 16.3277C3.06199 18.2661 3.668 18.9905 2.38292 18.985C1.99707 18.9834 0.439288 19.055 0.204328 18.8985C-0.0269304 18.7445 -0.0835761 18.3517 0.150556 18.133C0.41966 17.8815 1.75383 18.0151 2.22623 17.9886L2.21488 11.7816C1.69538 11.7536 0.37899 11.9247 0.110422 11.5904C-0.100526 11.3278 0.026598 10.9464 0.293558 10.8339C0.488579 10.7516 1.11948 10.786 1.36505 10.786C2.22989 10.786 3.09793 10.6106 3.18794 11.2485C3.28156 11.9121 3.10743 12.8962 3.21678 13.5547L10.8411 13.5344L10.8237 13.2669C10.3246 13.054 9.33812 13.1214 9.27421 12.5417C9.22064 12.0558 9.72241 10.986 9.61594 10.6628C9.48297 10.5557 8.12362 10.2831 7.86991 10.2248C7.00376 10.0259 6.8082 10.0553 7.03732 9.04424C7.16985 8.45937 7.80128 5.82911 7.8267 5.44746V5.44741Z" fill="#007ABE"/>
</g>
<defs>
<clipPath id="clip0_7_12522">
<rect width="31" height="19" fill="white"/>
</clipPath>
</defs>
</svg>
