<svg width="26" height="22" viewBox="0 0 26 22" fill="none" xmlns="http://www.w3.org/2000/svg">
<path fill-rule="evenodd" clip-rule="evenodd" d="M11.5593 6.04388C11.8404 6.40987 12.0989 7.79671 12.1448 8.38093C12.1932 8.99784 12.183 10.4506 11.9256 10.9672C11.7726 11.2743 11.4302 11.5508 11.023 11.2222C10.1651 10.53 11.0524 8.03355 11.0205 7.5703L10.8688 7.5531C10.4427 7.89926 10.0304 8.18398 9.58635 8.6261C9.19952 9.01123 8.67344 9.86011 8.55302 9.93403C8.52988 10.1455 8.32306 10.4777 8.22739 10.7217C8.12202 10.9904 8.05895 11.2442 7.95812 11.5299C7.94018 11.6656 7.87472 12.1288 7.80273 12.2436V13.4047L7.8643 13.5603C7.89239 13.8707 7.98392 14.2054 8.08326 14.4623C8.16947 14.6853 8.37998 15.0932 8.40357 15.2509C8.76861 15.5074 8.61916 15.9633 10.2181 17.0971C10.8692 17.451 11.4303 17.7328 12.3277 17.8415C13.4089 17.9725 13.8842 17.79 14.8157 17.554C15.1076 17.4088 15.5666 17.2036 15.8187 17.0391C16.2448 16.761 16.699 16.3517 17.0125 15.9491C17.5598 15.2463 17.4268 15.3751 17.8544 14.5154C18.096 13.5618 18.2942 13.1115 18.1301 11.9881C18.071 11.5835 17.9588 11.1995 17.8264 10.8681C17.6621 10.457 17.5321 10.2548 17.3633 9.90838L16.253 8.73188C16.0945 8.62245 16.0613 8.54841 15.8152 8.61088C15.7547 8.8889 15.8645 8.91524 15.9502 9.17577C16.0415 9.33226 16.0995 9.57875 16.1388 9.80365C16.2011 10.2396 16.2468 10.7557 16.1584 11.1893C16.0755 11.5954 15.7254 11.9384 15.4466 11.5177C15.2709 11.2525 15.2757 10.6445 15.2126 10.2809C15.1372 9.84526 14.9926 9.48729 14.9183 9.11164C14.7935 8.88892 14.729 8.60396 14.5949 8.3603C14.4881 8.16618 14.3393 7.88331 14.2541 7.68813C13.7056 6.97313 13.8674 7.01768 13.0987 6.2987C12.8411 6.0578 12.7297 5.94445 12.3969 5.73219C12.261 5.64552 12.122 5.54944 11.9889 5.47806C11.7543 5.35223 11.5479 5.34749 11.526 5.64418C11.5198 5.72761 11.5287 5.71279 11.5353 5.77691C11.5493 5.91132 11.5691 5.86729 11.5592 6.04378L11.5593 6.04388Z" fill="#007ABE"/>
<path fill-rule="evenodd" clip-rule="evenodd" d="M21.5712 13.2049C21.5343 13.4155 21.5143 13.6236 21.408 13.7665C21.4385 14.1181 21.0318 14.9502 20.9141 15.2862C20.7396 15.6466 20.266 16.6188 19.9726 16.7872C19.935 16.9453 19.804 17.0945 19.6716 17.2393C19.5288 17.3954 19.4563 17.4776 19.3383 17.6187C19.1128 17.8883 18.8835 18.0628 18.5948 18.2979L18.473 18.4247C18.4261 18.464 18.3871 18.491 18.3291 18.5362C17.8344 18.9214 16.8677 19.5189 16.2978 19.6995C14.5232 20.3208 13.7577 20.4183 11.6783 20.255C10.2739 20.0094 9.40997 19.6362 8.38553 19.0349C6.60629 17.9904 5.07515 15.9144 4.57449 13.9115C4.35917 13.0502 4.05804 10.5603 4.48668 9.95275C4.45958 9.66216 4.80007 8.5318 4.94048 8.38204C5.02365 8.04261 5.49643 7.09856 5.69954 6.92111C5.94404 6.41989 6.66491 5.62002 7.02501 5.30285C7.28379 5.07495 7.52773 4.84724 7.82306 4.63015C8.08778 4.43559 8.4278 4.26281 8.68318 4.06047C8.91261 3.90994 9.82926 3.47391 10.1551 3.42123C10.2951 3.303 10.6833 3.22297 10.8981 3.19602L11.4752 3.05814L12.2367 2.95626L13.9297 3.00127C13.9363 2.99006 13.9546 3.01121 13.9659 3.01818L14.2165 3.00738C14.4066 3.03198 14.4924 3.02367 14.6259 3.11973C14.9277 3.08806 15.2899 3.21686 15.5366 3.31969C15.9497 3.38597 16.9113 3.76893 17.0881 3.9939C17.3523 4.01735 17.9969 4.49603 18.2278 4.67504C18.9849 5.26181 20.5946 6.87406 20.6862 7.64275C20.9078 7.80237 21.175 8.56622 21.2666 8.88989C21.3513 9.14207 21.5314 9.69742 21.5096 9.9527C21.5431 10.0045 21.5157 9.93457 21.561 10.0664C21.5741 10.1044 21.5861 10.1534 21.5941 10.1925C21.6093 10.2676 21.6144 10.3347 21.6219 10.4128C21.6922 11.5638 21.7386 12.0327 21.5712 13.2048L21.5712 13.2049ZM10.1139 2.2564C9.92038 2.36501 9.65981 2.4168 9.41581 2.51546C9.18482 2.60886 8.98047 2.70994 8.73418 2.78432C8.60331 2.88991 8.12584 3.12365 7.94549 3.22757C7.69505 3.37182 7.45367 3.59782 7.20452 3.70909C7.11465 3.83437 6.26615 4.46117 5.94526 4.82995L4.89246 6.11043C4.5983 6.62755 4.22491 7.10553 4.00961 7.72232L3.75328 8.38225C3.6055 8.80542 3.39277 9.44766 3.34678 9.95596C3.33372 10.0306 3.31961 10.1446 3.30412 10.2138L3.25161 10.3788C3.24926 10.3718 3.24169 10.4045 3.23446 10.4161C3.28119 10.7054 3.19203 11.4041 3.19438 11.7835C3.20645 13.721 3.84433 14.8859 3.8353 15.2509C3.97547 15.3594 4.13999 15.8009 4.22723 15.9823C4.28874 16.1102 4.34374 16.2256 4.41235 16.3573C4.48304 16.4931 4.53751 16.5333 4.58381 16.691C4.82589 17.0066 5.03422 17.3765 5.29912 17.7041C5.42639 17.8615 5.55926 18.0171 5.68486 18.1848C5.82312 18.3695 5.97197 18.4421 6.12254 18.6087C6.43241 18.9515 6.65777 19.1257 7.03548 19.4209C7.16495 19.5221 7.99196 20.0698 8.02346 20.1198C8.39607 20.2433 8.74376 20.4834 9.11567 20.6394C9.50961 20.8047 9.86564 20.9274 10.2794 21.0483C11.2064 21.3192 12.0832 21.4188 13.0996 21.4348L14.264 21.3949C14.2753 21.3878 14.2936 21.3666 14.3001 21.3777L14.4653 21.3252C14.5378 21.3102 14.6512 21.2998 14.7238 21.2903C15.0041 21.2252 15.303 21.1778 15.5624 21.1016C15.7821 21.037 16.1786 20.8928 16.364 20.8955C16.4981 20.7222 16.8522 20.6492 17.059 20.5795C17.1817 20.4542 17.4859 20.3479 17.662 20.2588C17.8602 20.1586 18.0365 20.0407 18.2404 19.9208C18.6227 19.6959 18.9967 19.3999 19.331 19.1277L19.5363 18.9305C20.0393 18.5387 20.7342 17.618 20.8665 17.5166C20.9764 17.2908 21.1891 17.017 21.344 16.7766C21.5171 16.508 21.6136 16.2645 21.7752 15.9969C21.8727 15.7526 21.9898 15.5482 22.092 15.2943C22.1778 15.0814 22.2731 14.7214 22.3583 14.5548L22.5986 13.611C22.8232 12.3268 22.8758 11.2505 22.6494 9.95596C22.6269 9.67198 22.4834 9.37093 22.5079 9.0962C22.3578 8.92404 22.1077 8.0679 22.0479 7.8241C21.9653 7.72424 21.715 7.11401 21.6061 6.93215C21.5115 6.77432 21.4616 6.6658 21.3643 6.51348C21.2773 6.3773 21.1839 6.2652 21.1037 6.11041L20.2708 5.0704C19.7746 4.45662 18.7077 3.69251 18.6439 3.59895C18.4197 3.50218 18.0503 3.23511 17.7868 3.08377C17.4686 2.90098 17.2359 2.7997 16.9069 2.65095L15.501 2.11301C15.254 2.13677 13.9781 1.79112 12.7431 1.83431C11.2125 1.88782 11.2518 2.05382 10.1139 2.25638L10.1139 2.2564Z" fill="#007ABE"/>
<path fill-rule="evenodd" clip-rule="evenodd" d="M17.7157 0.767477L17.8207 0.973218C18.0653 1.09193 19.234 1.65152 19.3434 1.78274C19.6847 1.93353 20.1838 2.29751 20.4548 2.50098C21.792 3.50511 22.1341 4.01796 23.1165 5.32372C23.4163 5.77188 23.7066 6.28583 23.9597 6.80844C24.0796 7.17318 24.5254 7.97346 24.4961 8.34684C24.8099 8.63023 24.9972 10.9822 25.0765 11.2757C25.1748 11.4873 25.1609 11.4391 25.3846 11.5462C25.7414 11.5537 25.8968 11.5184 25.9665 11.2017C26.1415 10.4058 25.5852 8.20306 25.3333 7.42034C25.1785 6.93923 24.9054 6.39027 24.8292 6.1485C24.6995 5.87342 24.572 5.63162 24.4147 5.34367C24.2618 5.06353 24.0855 4.83614 23.9629 4.57482C23.7487 4.34781 23.4707 3.93087 23.2622 3.6512C23.0055 3.30689 22.7562 3.08948 22.521 2.82033L21.9084 2.21471C21.8259 2.1233 21.7903 2.10708 21.6839 2.02942C21.5176 1.90805 21.4118 1.79563 21.2407 1.66187C21.1274 1.57331 20.9034 1.45033 20.8375 1.29775C20.5863 1.23424 19.4944 0.371805 18.5311 0.0506534C18.0268 -0.0674638 17.6222 0.242788 17.7157 0.767501L17.7157 0.767477Z" fill="#007ABE"/>
<path fill-rule="evenodd" clip-rule="evenodd" d="M6.44957 0.502747C6.4089 0.567303 5.79359 0.920648 5.67145 1.00164C5.38262 1.19322 5.16305 1.33879 4.88818 1.54563C4.61997 1.79384 4.30126 1.99355 4.02047 2.2993C3.87874 2.45363 3.75111 2.53141 3.59924 2.6896C3.43262 2.8631 3.41846 2.98726 3.16256 3.08075C3.12586 3.19156 2.48207 3.9761 2.31449 4.19803C2.04549 4.55433 1.77627 5.00284 1.53773 5.40374C1.48001 5.60011 1.26698 5.9221 1.17368 6.15445C1.08769 6.36858 0.921996 6.74394 0.822731 6.92874C0.737958 7.19099 0.654454 7.42387 0.567525 7.68339C0.482752 7.93649 0.433526 8.17871 0.343723 8.43322C0.239739 9.20171 0.0658804 9.86447 0.0198887 10.6666C-0.000208703 11.0566 -0.0345827 11.1248 0.0923017 11.439L0.214635 11.513C0.593779 11.5771 0.807209 11.5539 0.914714 11.2717C0.990457 11.0729 1.01872 10.6418 1.02366 10.4128C1.049 10.2104 1.03762 10.0414 1.13603 9.90191C1.09329 9.63387 1.18427 9.24241 1.28523 8.99113C1.37662 8.3158 1.89539 6.99886 2.17862 6.49649C2.95581 5.11808 3.50433 4.38246 4.50873 3.34597C5.10913 2.72637 6.41151 1.90758 7.16005 1.48153C7.37707 1.40576 7.55522 1.30022 7.77799 1.1868C8.05016 1.04823 8.18394 1.02621 8.28297 0.767606C8.32678 0.306348 8.10405 0.302323 7.99422 0.0287448L7.76922 0C7.30258 0.0113542 6.8607 0.36652 6.4496 0.502795L6.44957 0.502747Z" fill="#007ABE"/>
</svg>
