<svg width="20" height="21" viewBox="0 0 20 21" fill="none" xmlns="http://www.w3.org/2000/svg">
<path fill-rule="evenodd" clip-rule="evenodd" d="M3.21677 1.09578C3.12707 1.17419 2.91968 1.24126 2.80777 1.29169C2.66318 1.35679 2.55264 1.41572 2.4104 1.49183L2.22696 1.58101C2.19732 1.62198 2.21948 1.5963 2.18331 1.63101C2.18227 1.63205 2.13711 1.66893 2.1358 1.66987C2.0881 1.70341 2.07606 1.70863 2.02342 1.73031C1.99605 1.76079 1.48964 2.18408 1.31626 2.38446C0.724674 3.06806 0.809623 3.03287 0.414555 3.75636C0.371657 3.90382 0.310415 4.04888 0.260696 4.2065C0.100627 4.7139 -0.199425 5.71467 0.194655 6.14534C0.299784 6.26021 0.502327 6.24548 0.6671 6.17723C1.15474 5.9754 1.00224 5.73734 1.23555 5.58183C1.24956 5.4911 1.31118 5.42374 1.37864 5.32938C1.66575 4.92768 2.41003 4.25782 2.81662 4.11939C2.93548 4.00495 3.3877 3.84417 3.57449 3.7953C3.73587 3.74591 3.90925 3.6993 4.08781 3.69027L4.6348 3.64408C4.66293 4.6638 4.62427 5.71095 4.63386 6.73472L4.638 9.61967C4.62949 9.93223 4.49402 9.73025 4.1434 9.87522C3.96758 9.94794 3.91918 10.0318 3.80497 10.0829L3.65478 10.2379C3.5767 10.3684 3.5321 10.3141 3.48097 10.6286C3.41286 11.0477 3.42119 11.929 3.41856 12.365C3.40562 14.4933 3.4591 16.6924 3.43874 18.804C3.43413 19.283 3.77566 19.5877 4.19392 19.7915C4.40616 19.895 5.03519 19.8433 5.31647 19.8388C5.83228 19.8306 7.16279 19.9281 7.53391 19.7259C8.2526 19.3341 8.17212 18.7912 8.17663 18.0491C8.18124 17.2875 8.15655 16.4692 8.19027 15.7161L8.19112 15.2949L8.19032 14.9064L8.19013 14.4781L8.19037 14.103L8.1906 13.6759L8.19084 13.2916L8.19022 12.8709L8.15857 10.8692L8.12635 10.4823C8.09577 10.4505 8.12009 10.4798 8.08627 10.4312C8.08162 10.4245 8.06854 10.4037 8.06417 10.3967C7.82808 10.0166 7.47874 9.80965 6.98983 9.79079L6.98978 3.69055C6.98677 3.55099 6.97741 3.65353 7.04044 3.61162L7.26843 3.60753L7.6484 3.60762L8.17136 3.61204L8.17437 4.16182L10.9741 4.15683L10.9712 3.59135L10.9707 3.17333L10.971 2.77995L10.9708 2.36513L10.9706 1.96907L10.9708 1.55858V1.16412L10.9698 0.760163L10.9711 0.1086L8.1779 0.110905L8.17033 0.69765L6.99025 0.692947L6.99011 0.108412L4.6317 0.106201L4.62714 0.764632C4.36678 0.805789 4.12257 0.839139 3.87463 0.90231C3.71358 0.943374 3.33201 1.09832 3.21681 1.09563L3.21677 1.09578Z" fill="#007ABE"/>
<path fill-rule="evenodd" clip-rule="evenodd" d="M15.3382 18.9752C15.1967 18.9437 15.0087 18.809 14.9142 18.7425C14.4889 18.4433 14.3377 17.4666 14.5832 17.2421C14.5699 17.0861 14.8978 16.7623 14.9968 16.6844C15.1919 16.531 15.4432 16.4452 15.7524 16.4274C15.9813 16.4317 16.1288 16.4573 16.3276 16.5459C16.4725 16.6105 16.6791 16.7475 16.747 16.8281C16.8328 16.93 17.2539 17.6126 17.0776 17.8501C17.1125 18.2422 16.7338 18.6713 16.535 18.8156C16.2128 19.0493 15.7794 19.122 15.3382 18.9752H15.3382ZM12.3714 1.59772C12.3529 1.68559 12.2662 1.85285 12.2262 1.95403C12.1733 2.08795 12.1472 2.21636 12.0966 2.34374C12.0764 2.48057 12.0607 2.74266 11.9864 2.8469L11.979 3.18566L11.9898 3.57536L12.0325 3.99922L12.1195 4.36211C12.1683 4.59937 12.4045 5.02379 12.4158 5.14317C12.4898 5.19985 12.7396 5.60273 12.8276 5.71533C12.8833 5.78664 12.9189 5.81868 12.98 5.88669C13.2081 6.14079 13.6197 6.43849 13.6604 6.50923C13.7848 6.53285 14.0553 6.72589 14.179 6.81549C14.214 7.04057 14.139 7.3822 14.1456 7.63112L14.1125 8.01697C14.1009 8.24449 14.0431 9.5646 13.9801 9.65943C14.0123 9.86451 13.9465 10.3288 13.9345 10.5597C13.919 10.8595 13.899 11.1746 13.8731 11.4732C13.8242 12.0343 13.7588 12.7131 13.7523 13.2669L13.714 13.4746L13.7207 13.6652C13.7188 13.8356 13.7361 14.1553 13.6599 14.2776C13.7155 14.5446 13.5528 16.0282 13.5325 16.4321C13.5142 16.7959 13.4854 17.1439 13.4667 17.5095C13.4395 18.0395 13.4719 18.069 13.5721 18.5419L13.597 18.5861C14.0828 19.8191 15.0976 19.9513 15.2427 20.0427H16.3391L16.812 19.8444C17.0296 19.742 17.4032 19.4656 17.5408 19.2823C17.5857 19.2225 17.6314 19.1644 17.6778 19.0972C17.7304 19.0212 17.7567 18.9618 17.8277 18.9168C17.8331 18.8226 17.8423 18.8383 17.8907 18.7438L18.0733 18.2011C18.1881 17.6166 17.9134 15.7082 17.9846 15.4102C17.9088 15.2856 17.8848 14.3139 17.8707 14.0801L17.7813 12.7643L17.7592 12.4798L17.537 9.22137L17.456 8.12582L17.4507 7.68804C17.386 7.60412 17.4054 7.37246 17.4001 7.24932C17.3768 6.70143 17.2843 6.87612 17.8896 6.48379C17.9602 6.43802 17.9381 6.44164 18.0077 6.42602C18.0647 6.3422 18.0543 6.3439 18.1499 6.30311L18.7452 5.6969C19.3862 4.93771 19.6293 3.99583 19.5692 2.93528C19.5356 2.34317 19.2102 1.54984 18.9266 1.17782C18.5914 0.738159 18.6767 0.874662 18.3499 0.543894L18.0428 0.258894C17.9659 0.19243 17.7683 0.0830211 17.6954 0H17.576L17.5822 4.18629C17.5022 4.22425 17.3808 4.20948 17.0886 4.2091C16.9196 4.20887 16.7352 4.21573 16.5685 4.20562L13.9951 4.20204L13.9804 0H13.8848C13.8231 0.0780822 13.5225 0.257107 13.4292 0.328274C13.2111 0.494552 12.8099 0.910881 12.6679 1.12848L12.3714 1.59777L12.3714 1.59772Z" fill="#007ABE"/>
</svg>
