<svg width="39" height="42" viewBox="0 0 39 42" fill="none" xmlns="http://www.w3.org/2000/svg">
<path fill-rule="evenodd" clip-rule="evenodd" d="M18.8112 31.705C24.4266 32.0015 29.2529 27.2945 28.1906 21.5874C27.7016 18.9609 26.144 17.7457 24.8012 15.0482C24.2255 13.8916 22.7375 10.464 23.5076 9.23636C23.9103 8.59445 24.6404 8.96049 24.8783 9.56186C25.0795 10.0704 25.1751 10.9782 25.3631 11.5974C25.883 13.3104 26.7837 15.1035 27.7944 16.5682C29.4776 19.0079 30.4033 21.0267 30.0954 24.1032C29.5566 29.4856 25.0401 33.3452 19.7143 33.5273C14.3993 33.7091 9.53607 30.1177 8.61612 24.7971C7.54023 18.5746 11.9127 17.1311 13.4548 10.1245C13.9084 8.06317 15.6392 8.40153 15.2296 10.4913C14.7644 12.8656 13.5759 15.4602 12.3189 17.5228C11.612 18.6824 11.0338 19.4202 10.6258 20.7655C8.96775 26.2322 13.3051 31.4143 18.811 31.705L18.8112 31.705Z" fill="#A3A3A3"/>
<path fill-rule="evenodd" clip-rule="evenodd" d="M14.1397 3.69247C14.3986 2.74216 15.773 2.98248 16.5405 2.98248L22.7984 2.98241C23.2326 2.98241 23.8113 2.90679 24.1771 3.15546C24.5486 3.40804 24.7175 3.8468 24.6008 4.2828C24.3355 5.27337 22.9812 5.00962 22.1967 5.01669C21.156 5.02612 20.1086 5.02336 19.0678 5.01622C18.0264 5.00908 16.9802 5.02888 15.9388 5.02187C15.493 5.01884 14.923 5.08591 14.5444 4.84727C14.1603 4.60534 14.0223 4.12409 14.1397 3.69247H14.1397Z" fill="#A3A3A3"/>
<path fill-rule="evenodd" clip-rule="evenodd" d="M24.494 6.94181C24.764 8.20638 23.4834 8.19352 22.678 8.19345H16.42C15.6216 8.19345 14.3032 8.43855 14.0254 7.46515C13.8984 7.02033 14.0598 6.54568 14.4597 6.30664C14.8381 6.08039 15.4404 6.1552 15.8785 6.15917L22.1365 6.1552C22.9438 6.14631 24.2761 5.92107 24.494 6.94181Z" fill="#A3A3A3"/>
<path fill-rule="evenodd" clip-rule="evenodd" d="M31.2549 14.5234C31.6674 14.1606 33.013 13.4722 33.576 13.1463C34.3535 12.6963 35.3443 11.9593 36.0251 13.0281C36.2828 13.4328 36.1948 14.1277 35.8342 14.4414C35.5446 14.6933 32.5373 16.3749 32.338 16.4487C32.0172 15.7161 31.5968 15.1843 31.2549 14.5234H31.2549Z" fill="#A3A3A3"/>
<path fill-rule="evenodd" clip-rule="evenodd" d="M6.25093 28.96L7.37227 30.8744C6.66491 31.3428 5.80887 31.8039 5.06131 32.2287C4.35798 32.6283 3.22452 33.4381 2.62315 32.4126C1.94864 31.2622 3.04851 30.7519 3.85512 30.3009C4.33516 30.0324 5.86415 29.0673 6.25099 28.96H6.25093Z" fill="#A3A3A3"/>
<path fill-rule="evenodd" clip-rule="evenodd" d="M25.5615 35.7645C25.6418 35.6993 27.3656 34.6903 27.508 34.6273C27.9608 35.3835 28.3803 36.1936 28.8421 36.941C29.2725 37.6374 30.0283 38.8096 29.0113 39.3906C27.834 40.0631 27.3809 38.9083 26.9222 38.1407C26.591 37.5866 25.7614 36.2859 25.5615 35.7644V35.7645Z" fill="#A3A3A3"/>
<path fill-rule="evenodd" clip-rule="evenodd" d="M4.89469 21.558C4.83806 22.3434 4.92493 23.0968 4.88298 23.8061C4.30564 23.9116 2.55289 23.8255 1.85819 23.8213C1.04861 23.8164 0.00887661 23.8585 5.56255e-05 22.7062C-0.00863069 21.5813 1.00168 21.5537 1.85819 21.5578C2.85745 21.5625 3.8994 21.5871 4.89469 21.5579V21.558Z" fill="#A3A3A3"/>
<path fill-rule="evenodd" clip-rule="evenodd" d="M31.2388 30.8849L32.366 28.949C32.7286 29.0668 34.3082 30.0246 34.7194 30.2823C35.4488 30.7395 36.6866 31.2119 36.019 32.3767C35.7912 32.7742 35.2661 32.9883 34.8162 32.8885C34.4629 32.8101 31.6961 31.1421 31.2388 30.8849V30.8849Z" fill="#A3A3A3"/>
<path fill-rule="evenodd" clip-rule="evenodd" d="M11.109 34.6332C11.1522 34.6461 13.0223 35.7404 13.0474 35.7645C12.8128 36.3687 12.0755 37.4722 11.7192 38.1037C11.2668 38.9054 10.8114 40.0165 9.65238 39.4047C8.55649 38.8264 9.332 37.7108 9.7476 36.9736C10.1878 36.1926 10.6589 35.4106 11.109 34.6332V34.6332Z" fill="#A3A3A3"/>
<path fill-rule="evenodd" clip-rule="evenodd" d="M6.27845 16.4545C6.09098 16.3805 2.96182 14.6161 2.75631 14.4078C2.42785 14.0748 2.32678 13.4266 2.58488 13.0231C3.25332 11.978 4.27043 12.6659 5.04337 13.1449C5.52274 13.4419 6.90487 14.296 7.36147 14.4472C7.24781 14.8636 6.50948 15.8566 6.27838 16.4546L6.27845 16.4545Z" fill="#A3A3A3"/>
<path fill-rule="evenodd" clip-rule="evenodd" d="M18.1813 37.1102L20.4398 37.1367C20.4398 38.1407 20.4394 39.1489 20.4398 40.1572C20.4401 40.9677 20.4374 41.9999 19.3044 42C18.174 42.0001 18.1771 40.9923 18.1772 40.1572C18.1774 39.1596 18.1428 38.0998 18.1812 37.1102H18.1813Z" fill="#A3A3A3"/>
<path fill-rule="evenodd" clip-rule="evenodd" d="M33.7485 21.5578C34.7339 21.5579 35.7465 21.5597 36.7583 21.564C37.587 21.5675 38.6328 21.5318 38.6132 22.7046C38.5946 23.8154 37.5935 23.8322 36.7583 23.8286C35.7807 23.8244 34.725 23.7887 33.7553 23.8283L33.7485 21.5579V21.5578Z" fill="#A3A3A3"/>
<path fill-rule="evenodd" clip-rule="evenodd" d="M22.0983 1.10486C22.4191 2.50382 20.1757 2.12088 19.4288 2.13556C18.7848 2.14822 18.1437 2.12142 17.503 2.1394C16.9796 2.15408 16.4033 2.07833 16.29 1.46126C16.0305 0.0489621 18.1457 0.404699 19.0076 0.404699C19.65 0.404699 20.2925 0.406649 20.9349 0.403687C21.497 0.401128 21.954 0.475334 22.0983 1.10486Z" fill="#A3A3A3"/>
</svg>
