<svg width="39" height="45" viewBox="0 0 39 45" fill="none" xmlns="http://www.w3.org/2000/svg">
<path fill-rule="evenodd" clip-rule="evenodd" d="M1.32171 26.1335H9.69026C9.69026 28.445 10.3091 30.0663 11.4659 31.7722C11.7672 32.2167 12.4495 33.0154 12.889 33.3588C13.0351 33.4728 13.0733 33.5254 13.2035 33.6316C16.4396 36.2679 21.2308 36.5719 24.6956 34.1651C24.9449 33.992 25.1301 33.8518 25.3696 33.6648C25.9741 33.1927 26.6484 32.4698 27.0885 31.8601C27.4054 31.4212 27.7211 30.9 27.9698 30.3923C28.581 29.1467 28.9229 27.7783 28.9229 26.1335H37.2915V27.5281C33.2461 27.5281 33.7403 27.1871 33.3128 28.7616C33.0562 29.7067 32.6476 30.6451 32.2263 31.4923C31.4308 33.0921 31.0669 32.7188 32.6849 34.3368C33.0053 34.6572 33.5906 35.3128 33.9146 35.5298L30.0421 39.4384C29.8025 39.0898 29.1219 38.4815 28.7944 38.1541C26.5785 35.9381 28.2621 37.3636 23.2289 38.7914C23.0343 38.8467 22.5719 38.9475 22.4264 39.0166C22.2188 39.1151 22.0225 39.3582 22.0225 39.6404V42.7236H16.5904V39.6404C16.5904 38.8343 15.4527 38.9175 13.9467 38.3199C13.4899 38.1385 13.0125 37.9424 12.5771 37.7075C11.1243 36.9241 11.2777 36.6889 10.479 37.4929L8.51554 39.4199L4.68036 35.5471C4.89555 35.3992 7.04714 33.3282 7.04714 33.0333C7.04714 32.4554 6.82254 32.3645 6.38629 31.4917C5.96649 30.6518 5.55434 29.6985 5.29976 28.761C4.87232 27.1868 5.36649 27.5275 1.32112 27.5275V26.1329L1.32171 26.1335ZM11.0849 26.1335H27.5283C27.5283 29.4319 25.643 32.1814 23.0014 33.4987C20.1772 34.9074 16.9035 34.6046 14.3768 32.7517C13.9496 32.4386 13.7133 32.1732 13.342 31.8042C12.1105 30.5801 11.0849 28.5676 11.0849 26.1335ZM0.000293974 25.6196V28.1154C0.000293974 29.0397 1.10769 28.8498 1.61539 28.8495C2.42293 28.8492 3.23018 28.8495 4.03773 28.8495C4.31201 30.0266 5.0734 31.8748 5.65282 32.7402C5.30975 32.9698 4.65537 33.7009 4.31318 34.0431C4.07507 34.2813 3.89074 34.4659 3.65233 34.7037C2.59109 35.7629 2.97178 35.7482 5.0102 37.7869L8.0199 40.7969C8.6152 41.2869 8.9224 40.8874 9.30486 40.5029L11.3786 38.4657C13.8344 39.765 14.4526 39.6889 15.2693 40.0808C15.2693 40.8392 15.2693 41.598 15.2693 42.3564C15.2693 43.1319 15.0814 44.0447 15.8564 44.0447H22.7568C23.5158 44.0447 23.3439 43.1034 23.3439 42.3564C23.3439 41.598 23.3439 40.8392 23.3439 40.0808C23.6035 39.9561 24.0197 39.8679 24.3443 39.7597C25.4893 39.3779 26.2125 39.0066 27.2346 38.4657L29.2716 40.4662C30.2514 41.4483 30.3019 41.0876 31.584 39.8053L34.6672 36.7221C35.9915 35.3978 35.7687 35.5112 34.3367 34.0796C33.9875 33.7303 33.3099 32.9739 32.9603 32.7399C33.6521 31.4326 34.2159 30.392 34.5754 28.8492C35.014 28.8492 37.7733 28.8959 38.0702 28.8204C38.3859 28.7398 38.6129 28.4729 38.6129 28.1152V25.6193C38.6129 25.1613 38.403 24.8118 37.952 24.8118H0.660853C0.210191 24.8118 0 25.161 0 25.6193L0.000293974 25.6196Z" fill="#A3A3A3"/>
<path fill-rule="evenodd" clip-rule="evenodd" d="M4.11132 18.5724C4.11132 14.8592 5.85458 11.1848 8.23959 8.60638L10.2351 6.85782C10.654 6.55562 12.0827 5.64459 12.5625 5.44175C13.0202 5.24802 13.7193 4.87614 14.1682 4.77178L14.1652 9.39952C14.1552 10.8856 15.4896 10.4017 15.4896 9.61676V1.32171H18.646V7.70829H19.9674V1.32171H23.1238V9.61676C23.1238 9.78639 23.2123 9.99981 23.2996 10.1015C23.6647 10.529 24.4349 10.4355 24.4499 9.54797L24.4452 4.77178C24.7677 4.92641 25.1428 5.01549 25.4985 5.18658C27.1359 5.97531 28.2131 6.61382 29.528 7.83734L30.6295 8.93827C33.1977 11.6825 34.5023 15.2834 34.5023 19.2332H33.9885C32.9087 19.2332 33.0592 20.408 33.7683 20.408H37.4385V22.2429H1.17511V20.408H4.84537C5.55003 20.408 5.6926 19.2332 4.62519 19.2332H4.11132V18.5727V18.5724ZM14.1682 3.37688C13.6322 3.6341 12.8811 3.83695 11.8437 4.35552C10.6152 4.96963 9.89996 5.45292 8.85988 6.28986L7.94621 7.06448C7.08075 7.86497 6.33552 8.8051 5.65351 9.76346C5.02705 10.643 4.33356 11.9971 3.92288 13.0245C3.13033 15.0068 2.79049 16.7853 2.79049 19.2329H0.66183C0.299066 19.2329 0.000976562 19.5307 0.000976562 19.8938V22.7565C0.000976562 23.1116 0.209404 23.4174 0.588336 23.4174H38.0262C38.4048 23.4174 38.6136 23.1116 38.6136 22.7565V19.8938C38.6136 19.531 38.3158 19.2329 37.9527 19.2329H35.824C35.824 16.862 35.4686 15.0141 34.7237 13.1392C33.7039 10.5728 32.3596 8.6005 30.3009 6.7711C29.1688 5.76512 28.2507 5.09545 26.8193 4.37992C25.6167 3.77874 24.9476 3.61735 24.4458 3.37658C24.4458 2.71573 24.4455 2.05517 24.4458 1.39461C24.4461 0.6976 24.5704 0 23.8584 0H14.7558C14.0441 0 14.1682 0.6976 14.1685 1.39461C14.1688 2.05517 14.1685 2.71602 14.1685 3.37658L14.1682 3.37688Z" fill="#A3A3A3"/>
<path fill-rule="evenodd" clip-rule="evenodd" d="M10.2775 20.5543H28.3357C29.168 20.5543 29.1195 19.2329 28.2625 19.2329H10.351C9.48877 19.2329 9.41792 20.5543 10.2778 20.5543H10.2775Z" fill="#A3A3A3"/>
</svg>
