<svg width="37" height="36" viewBox="0 0 37 36" fill="none" xmlns="http://www.w3.org/2000/svg">
<path fill-rule="evenodd" clip-rule="evenodd" d="M17.0553 24.436L16.7074 24.3804C16.4828 24.4107 15.7973 24.1539 15.6031 24.0628C14.9923 23.7765 14.4345 23.3015 14.0826 22.7331C13.8989 22.4362 13.7487 22.1629 13.6321 21.7647C13.396 20.9583 13.4424 20.0845 13.7376 19.3397C13.9812 18.725 14.2217 18.4816 14.5866 18.0577C14.645 17.99 14.7087 17.9407 14.7699 17.8761C14.8307 17.8119 14.8751 17.7486 14.9444 17.6998C14.9762 17.6337 14.9632 17.6634 15.0251 17.6035C15.0472 17.582 15.045 17.5814 15.0674 17.5627C15.1239 17.5153 15.0702 17.5542 15.1215 17.525C15.1473 17.4505 15.3592 17.2367 15.4392 17.1918C15.4698 17.1266 15.5063 17.0917 15.5608 17.0401L15.7043 16.921C15.7274 16.8256 17.3715 15.1962 17.4451 15.0699C17.5097 15.1167 17.5941 15.2094 17.653 15.2724L18.4386 16.1134C18.5146 16.1976 18.5677 16.2508 18.6334 16.3263L19.0194 16.7384C19.0302 16.7447 19.0326 16.7381 19.0619 16.772C19.0967 16.8123 19.0783 16.7914 19.0947 16.8276C19.185 16.8953 19.4647 17.2042 19.5506 17.2996L19.9956 17.7692C20.1482 17.9288 20.28 18.0817 20.4377 18.2418C20.5866 18.393 20.7235 18.5517 20.8795 18.7148L22.2191 20.1404C22.3089 20.2385 22.6166 20.5325 22.6592 20.6221C22.6136 20.7056 21.6391 21.6935 21.5086 21.8376L20.6426 22.7402C20.4711 22.9246 20.0949 23.3269 19.9076 23.4897C19.8406 23.5479 19.8179 23.5628 19.7489 23.6164C19.2857 23.9762 18.7179 24.2455 18.1249 24.3596C17.7801 24.426 17.42 24.4478 17.0553 24.4359L17.0553 24.436ZM12.8146 0.874806C12.8096 0.877974 12.8028 0.881355 12.799 0.883305C12.7953 0.885254 12.7883 0.889305 12.7837 0.89156L12.3906 1.02099C12.1559 1.11932 11.7876 1.22889 11.5178 1.34693C11.455 1.37443 11.3741 1.40636 11.3006 1.43627C10.3552 1.82069 9.17981 2.42894 8.33972 2.9862L6.9362 3.98652C6.87609 4.03215 6.82812 4.0741 6.76888 4.12402L5.95363 4.8162C5.63813 5.09281 5.32572 5.43962 5.04824 5.70049C4.69635 6.0313 3.94148 6.9381 3.65582 7.31515C3.3808 7.67816 2.92385 8.32838 2.67614 8.73078L2.03669 9.84874L1.93826 10.0371C1.89582 10.1384 1.85305 10.2117 1.81015 10.2986C1.58917 10.7453 1.14288 11.7695 1.02836 12.176C1.02398 12.1865 0.974294 12.3054 0.973579 12.3069C0.920255 12.5036 0.844345 12.6815 0.786572 12.8789C0.374044 14.289 0.0222442 15.8895 0.0329151 17.3622L0 17.3622V18.8498C0.0580837 18.8705 0.0200353 18.8345 0.0329151 18.9109C0.034284 18.9191 0.0345951 18.9965 0.0347507 19.0112C0.0382662 19.3642 0.0850256 19.8544 0.121643 20.1981C0.162056 20.5777 0.234233 21.091 0.315991 21.4589C0.564442 22.5767 0.868518 23.7888 1.32463 24.8393C1.46475 25.162 1.61878 25.5248 1.7726 25.851C1.85115 26.0176 1.93319 26.1646 2.01722 26.3366C2.15824 26.6252 2.6875 27.5188 2.82271 27.7204C2.92612 27.8746 3.01979 28.0182 3.12112 28.1723L4.39237 29.8269C4.67694 30.1647 5.17561 30.6844 5.45679 30.9579C6.01003 31.496 7.00243 32.3513 7.66478 32.7813C8.04445 33.0278 8.51821 33.306 8.99299 33.3013L9.01122 33.3012C10.05 33.2284 10.5691 31.9019 9.8452 31.1896C9.55802 30.907 9.13868 30.6697 8.81009 30.4117L7.81414 29.5951C7.59954 29.416 6.92179 28.7454 6.76288 28.5726L6.24096 27.9761L5.08501 26.4102C5.02404 26.3225 4.95363 26.2204 4.90949 26.1407C4.85616 26.0445 4.80051 25.9611 4.7441 25.8599C4.71253 25.8033 4.69408 25.7772 4.65995 25.7201C4.6587 25.718 4.61568 25.644 4.61555 25.6437C4.58158 25.5712 4.59888 25.6361 4.59421 25.5681C4.52767 25.5236 4.54142 25.5366 4.52487 25.4527C4.45176 25.4066 4.00118 24.4339 3.93719 24.295C3.56423 23.4852 3.26594 22.5409 3.04509 21.6654C2.98921 21.4439 2.75442 20.3754 2.78064 20.2052C2.77738 20.2003 2.77452 20.1934 2.77296 20.1893C2.77144 20.1852 2.76764 20.1783 2.76596 20.1732L2.75184 20.067L2.66504 19.2433L2.63682 18.6701C2.61252 18.5623 2.60045 18.2696 2.63526 18.1754C2.62257 18.152 2.62774 18.1727 2.61806 18.1249C2.61321 18.1009 2.61321 18.0917 2.61224 18.0673L2.63358 17.4834C2.63405 17.4453 2.62904 17.3978 2.63228 17.3609L2.65545 17.2713C2.62248 17.1635 2.65857 16.9962 2.66961 16.8746C2.6763 16.7685 2.67919 16.6836 2.69297 16.5779L2.73973 16.2914C2.69702 16.0077 3.09741 14.3229 3.19899 13.954C3.2758 13.6751 3.81424 12.0507 3.94129 11.9234C3.97097 11.8215 4.12721 11.4808 4.16824 11.44C4.37105 10.9831 4.71278 10.397 4.9831 9.96364L5.43853 9.28195C5.59787 9.05766 5.76506 8.85433 5.92656 8.6333C6.09011 8.4095 6.28175 8.21598 6.44241 8.0115C6.65869 7.73612 7.05246 7.37881 7.27291 7.13451C7.36201 7.03576 7.46822 6.95324 7.56594 6.8568C7.66387 6.76014 8.06853 6.38571 8.16622 6.33439C8.18178 6.31775 8.18843 6.30932 8.20393 6.29579C8.24686 6.25839 8.21463 6.2862 8.23563 6.27343C8.3083 6.18363 8.42914 6.10629 8.53009 6.02959C8.59455 5.98058 8.61179 5.95956 8.67444 5.91018C8.75941 5.84323 8.76233 5.83028 8.82346 5.81987C8.84344 5.78684 8.81457 5.80083 8.87996 5.77353C8.93136 5.66211 10.06 4.96153 10.2391 4.84471C10.3489 4.77315 10.4817 4.70589 10.6005 4.63559C10.7616 4.54025 11.5766 4.09575 11.7468 4.06822C11.8046 3.99703 12.1146 3.87616 12.2482 3.82858C12.4424 3.74164 12.6503 3.66488 12.8427 3.59144C13.1308 3.48138 14.5466 2.99613 14.7766 3.01736L14.8582 2.98203C15.0268 2.92394 16.4496 2.6765 16.5867 2.69563C16.6566 2.64957 17.0925 2.63916 17.2308 2.61902L17.901 2.5818C18.2464 2.55725 18.4024 2.56501 18.7262 2.57071C18.8092 2.5722 18.9159 2.55862 18.9845 2.59234L19.1399 2.58149C19.2904 2.5934 19.6882 2.56282 19.7863 2.63775C20.0999 2.59255 22.0497 2.92278 22.3354 3.03217C22.4216 3.03939 22.3824 3.02601 22.4185 3.06123C22.6102 3.07582 22.8904 3.18094 23.0663 3.22992C23.6943 3.40477 24.8589 3.83233 25.4163 4.12896C25.6066 4.23021 25.781 4.29293 25.9647 4.39729C26.8583 4.90493 27.0655 5.0063 27.9595 5.64355C28.6734 6.15238 29.7105 7.053 30.3148 7.746C30.3756 7.81566 30.4387 7.87579 30.4995 7.94722C30.8982 8.41563 31.5617 9.23013 31.898 9.77831C32.8225 11.2851 33.4058 12.4641 33.8763 14.2411C34.12 15.1616 34.1187 15.4282 34.2637 16.2604C34.3045 16.4952 34.3044 16.738 34.3361 16.976L34.3628 17.5026L34.3758 18.0587C34.3782 18.2004 34.3848 18.8599 34.341 18.9285C34.3609 19.0296 34.3465 19.158 34.3272 19.2548L34.275 19.8361C34.1667 20.6548 34.0188 21.4138 33.8016 22.1797C33.7007 22.5355 33.5808 22.8809 33.4614 23.2361C33.4309 23.3269 33.3927 23.4223 33.3627 23.5016L33.1592 23.9857C33.1222 24.0669 33.1053 24.1452 33.0568 24.2234C33.0377 24.3066 32.9816 24.4 32.9445 24.4801C32.923 24.5264 32.9077 24.5679 32.8903 24.6083C32.8762 24.6411 32.8386 24.6998 32.8346 24.7056C32.778 24.8248 32.723 24.9287 32.6698 25.0369L32.5049 25.3585C32.4664 25.4254 32.4449 25.4478 32.4063 25.5032L32.1442 25.9521C31.6659 26.7438 30.7331 28.0348 30.0838 28.6832C29.9995 28.7673 29.7035 29.1187 29.5961 29.1583C29.5823 29.2084 29.5549 29.2204 29.5071 29.2661C29.4646 29.3067 29.4477 29.3336 29.3945 29.3542C29.3564 29.4368 29.0817 29.649 28.9936 29.7292C28.6248 30.0649 27.6982 30.7262 27.2594 31.0103C26.9519 31.2094 26.649 31.4111 26.3308 31.5894L25.3305 32.0998C25.1599 32.172 24.9893 32.252 24.8053 32.3303C24.0506 32.6516 23.3406 32.8614 22.5321 33.0844L21.3047 33.3698C20.9317 33.4454 20.2634 33.452 19.876 33.43C19.3771 33.4017 18.9668 33.3653 18.5124 33.2708C16.7701 32.9088 15.2837 32.0708 14.3519 30.6401C14.0969 30.2487 13.6814 29.3859 13.7181 29.0309C13.6762 28.9731 13.6682 28.8318 13.6639 28.7449C13.6746 28.1687 13.6489 27.8505 13.8134 27.3231L13.8539 27.215C13.8873 26.9503 14.2342 26.3943 14.2797 26.2748C14.3952 26.3165 14.4977 26.3744 14.6065 26.4267C14.7147 26.4788 14.8158 26.5183 14.9217 26.5611C15.1283 26.6446 15.3515 26.7336 15.5981 26.7963C15.7143 26.8202 16.0401 26.8776 16.1101 26.9293C16.2314 26.9186 16.7143 27.0214 17.02 27.0236L17.9817 27.008L18.0134 26.9942C18.0188 26.9926 18.0245 26.9903 18.0306 26.9887L18.5193 26.9209C18.7073 26.8577 18.9992 26.8122 19.2103 26.7518C20.3891 26.4149 21.3669 25.7394 22.1748 24.8842C22.2163 24.8403 22.2384 24.8091 22.2813 24.7669L23.24 23.774C23.3961 23.6157 23.5212 23.4761 23.6645 23.3244C23.737 23.2477 23.7986 23.1867 23.8856 23.0974L26.2312 20.6424C26.2051 20.5848 26.022 20.3994 25.9545 20.3228C25.9474 20.3182 25.9271 20.3062 25.9118 20.2892C25.8614 20.2328 25.8992 20.2802 25.8839 20.2418C25.837 20.2092 25.7107 20.0766 25.6669 20.026C25.6088 19.9591 25.5146 19.8685 25.4622 19.8004C25.4106 19.7647 25.361 19.7088 25.3292 19.6427C25.2106 19.5844 25.1554 19.4731 25.0497 19.3615C24.985 19.2931 24.8216 19.1445 24.7929 19.0725C24.8217 19.0474 24.8326 19.0248 24.8752 19.012C24.9111 18.9487 24.9241 18.942 24.9756 18.8914C25.0154 18.8522 25.0251 18.8302 25.0778 18.8158C25.1031 18.7533 25.1586 18.7153 25.2031 18.6718C25.2381 18.6377 25.2816 18.5811 25.327 18.5693C25.3732 18.4881 25.4006 18.4768 25.4695 18.4094L26.4671 17.4339C26.5883 17.3156 27.5119 16.3812 27.6266 16.3193C27.6395 16.2643 27.7566 16.1501 27.7943 16.0968C27.8524 16.0151 27.8893 15.9434 27.9274 15.8514C27.9476 15.7808 27.9617 15.6638 28.0061 15.6195C27.9977 15.5198 28.0165 15.4162 28.0119 15.3078C28.007 15.1928 27.9743 15.1526 27.9851 15.0421C27.9297 14.9921 27.9276 14.9229 27.8921 14.847C27.8619 14.7825 27.8342 14.7414 27.7953 14.6801C27.7011 14.5314 27.6293 14.5152 27.5423 14.3831C27.4985 14.3799 27.3977 14.2884 27.3287 14.2518C26.9212 14.0358 26.5627 14.1284 26.4339 14.1142C26.41 14.1319 26.4347 14.1185 26.3919 14.1374C26.3891 14.1387 26.3458 14.154 26.3452 14.1541C26.3032 14.1662 26.2719 14.1702 26.2289 14.177C26.1931 14.208 26.1108 14.2305 26.0604 14.2592C25.8041 14.4052 25.5757 14.6711 25.362 14.8826C25.2671 14.9765 25.1909 15.0625 25.1002 15.1355C25.0743 15.1794 24.9798 15.2604 24.912 15.3276C24.8498 15.3894 24.7862 15.4628 24.7078 15.5053C24.6934 15.5553 24.5291 15.7026 24.4846 15.7398C24.48 15.7455 24.4769 15.75 24.4586 15.7699C24.375 15.8602 24.121 16.1128 24.05 16.1517C24.0376 16.2013 23.9043 16.3147 23.8692 16.3443C23.8224 16.3995 23.7235 16.494 23.6603 16.5573C23.5913 16.6264 23.5247 16.7076 23.4334 16.7569C23.4247 16.8049 23.3584 16.8537 23.3218 16.8901C23.2767 16.935 23.2468 16.9768 23.1873 17.0019C23.1612 17.0683 23.0638 17.1532 23.0016 17.1777L22.5168 16.6687C22.457 16.6132 22.4039 16.5594 22.3662 16.4845C22.3247 16.4649 22.258 16.3872 22.2237 16.3525C22.1748 16.3031 22.1305 16.2627 22.1099 16.2093C22.0123 16.1521 21.9577 16.0759 21.8876 15.9964C21.8053 15.9031 21.7193 15.8467 21.6896 15.7732C21.6341 15.7306 21.5451 15.6352 21.4939 15.5778C21.4668 15.5474 21.3499 15.4319 21.3365 15.3854C21.2462 15.338 21.1927 15.2754 21.1568 15.1934C21.0751 15.1642 20.9469 14.9804 20.8569 14.8926C20.8013 14.8384 20.6106 14.6579 20.5719 14.5777C20.73 14.4714 20.8396 14.3132 20.9848 14.1937C21.0175 14.14 21.086 14.0804 21.1391 14.0285C21.1922 13.9765 21.2517 13.9098 21.3092 13.878L21.5636 13.6321C21.5809 13.5962 21.6925 13.4748 21.7613 13.4345C21.8323 13.3513 21.9151 13.2975 21.9957 13.2169C22.0717 13.1409 22.1252 13.0724 22.2032 12.9974C22.4852 12.7263 23.1814 12.0976 23.3929 11.8072L23.4783 11.6859C23.4829 11.6245 23.51 11.5848 23.5284 11.5414C23.5901 11.4492 23.6046 11.2899 23.616 11.1617C23.6288 11.0164 23.5793 10.8733 23.5835 10.7444L23.5445 10.6693C23.5301 10.6377 23.5284 10.6311 23.513 10.6003C23.4342 10.4426 23.4413 10.424 23.3091 10.257C23.1561 10.0639 22.9705 10.0175 22.9044 9.92447C22.8133 9.91862 22.6877 9.85115 22.5576 9.82611C22.0067 9.72013 21.6226 9.93443 21.2767 10.2785L20.6084 10.9325C20.0542 11.4808 19.3379 12.1511 18.8084 12.6943C18.7026 12.6392 17.8057 11.6406 17.6267 11.4543C17.5608 11.3858 17.5305 11.3264 17.4418 11.2976C17.3569 11.4296 15.8223 13.0092 15.5773 13.2725L14.783 14.1043C14.5545 14.3384 13.3421 15.6388 13.1771 15.7777C13.1749 15.7815 13.1715 15.7869 13.17 15.789L13.1459 15.8221C13.0935 15.8865 13.0763 15.905 13.022 15.9243C13.0062 15.9758 13.0276 15.9242 13.0032 15.965L12.9385 16.0426C12.5102 16.4993 12.3329 16.6484 11.9335 17.2109L11.6331 17.6837C11.618 17.7272 11.609 17.7537 11.5868 17.7977C11.584 17.8033 11.5634 17.839 11.5576 17.8478C11.5255 17.8961 11.5532 17.8581 11.5317 17.881C11.4936 17.9956 11.4156 18.1291 11.3601 18.2603C11.1923 18.6566 11.0643 19.0909 10.9759 19.515C10.8565 20.0882 10.8276 20.9449 10.9224 21.5413C11.0779 22.5198 11.4357 23.4974 12.0062 24.284C12.0706 24.3726 12.2041 24.5251 12.2365 24.6071C12.1606 24.7498 12.0529 24.872 11.9778 25.0033C11.7076 25.4758 11.5832 25.7163 11.3748 26.2802C11.3609 26.3272 11.3487 26.3612 11.3343 26.4058L11.2892 26.5124C11.2878 26.5093 11.2833 26.5225 11.2798 26.5273C11.2931 26.6683 10.9113 27.5902 11.0513 28.903L11.155 29.678C11.1581 29.6825 11.1607 29.6891 11.1623 29.6926L11.2245 29.8996C11.2418 29.9778 11.2646 30.058 11.2833 30.1418C11.3485 30.3102 11.4005 30.5133 11.4601 30.6749C11.9098 31.8945 12.7622 32.9795 13.7341 33.8017C14.4622 34.4178 15.3457 34.9307 16.2378 35.275C16.5949 35.4128 16.9728 35.5369 17.3385 35.6349C17.4311 35.6512 17.3808 35.6448 17.4016 35.6656C17.5075 35.6702 18.2723 35.8547 18.6139 35.8894C19.0447 35.9332 19.4738 36.001 19.9184 36C20.377 35.9989 20.8569 36.0048 21.3015 35.9465C21.4404 35.9283 21.5262 35.9411 21.6558 35.9287L22.5098 35.7374C23.0411 35.6114 23.7056 35.4823 24.2072 35.2867C24.5993 35.1338 25.0483 35.0068 25.5209 34.8231L26.7519 34.2978C26.7899 34.2514 27.0369 34.1242 27.1232 34.1064L29.0779 32.9113C29.183 32.8369 29.6137 32.5065 29.6904 32.4894C29.734 32.4126 29.7936 32.3693 29.8877 32.3323C29.8961 32.2996 29.9481 32.2718 30.0051 32.2291C30.2649 32.0343 30.6602 31.7363 30.8764 31.5323L31.3397 31.1004C31.92 30.5324 32.1243 30.303 32.652 29.7088C32.8493 29.4867 33.2348 28.9495 33.4319 28.7013C33.6373 28.4424 34.3629 27.3635 34.5155 27.0843C34.5745 26.9763 34.6258 26.8882 34.6793 26.8017C34.6878 26.7881 34.7238 26.7293 34.7248 26.7261C34.7637 26.6112 34.6732 26.7198 34.7839 26.5032C34.8854 26.3043 34.9986 26.1046 35.0989 25.9065C35.1959 25.7153 35.2861 25.5005 35.3863 25.3015C35.5769 24.9232 35.8221 24.2182 35.908 24.0592C35.9333 23.9683 35.9535 23.9116 35.9888 23.8185L36.0775 23.6009C36.2843 22.9109 36.5341 22.1328 36.6768 21.372C36.8325 20.5416 36.9575 19.7154 36.9678 18.8508C36.9797 18.7822 36.9523 18.8274 37 18.8108V17.3624C36.9583 17.3419 36.9798 17.3971 36.9677 17.3212C36.9676 16.4341 36.8092 15.308 36.6273 14.4666C36.5098 13.9228 36.3001 13.108 36.1137 12.5747C36.0639 12.4323 35.9304 12.0993 35.9213 11.9755C35.8571 11.9224 35.829 11.7839 35.8036 11.6941C35.7491 11.5974 35.6845 11.4016 35.6374 11.2892C35.505 10.9735 35.2263 10.347 35.085 10.0998C34.933 9.83387 34.8242 9.56959 34.6763 9.33084C34.5183 9.07606 34.3942 8.83751 34.241 8.60997L33.7735 7.9012C33.6155 7.66427 33.438 7.45351 33.2822 7.23418C33.1126 6.99549 32.2351 5.9846 32.2311 5.96684C32.1512 5.92258 32.1595 5.9344 32.1296 5.87332C32.0809 5.83589 32.0487 5.79242 31.9939 5.73954C31.9477 5.69485 31.917 5.66342 31.8708 5.61836C31.791 5.54063 31.6823 5.45954 31.6424 5.36526C31.5815 5.3274 31.5279 5.27899 31.4931 5.21545C31.4005 5.17396 31.1245 4.91565 31.0725 4.81985C30.9941 4.78412 30.9036 4.7097 30.8582 4.63111C30.8143 4.62018 30.8447 4.6372 30.7919 4.60114L30.6594 4.47092C30.6022 4.42163 30.5178 4.36055 30.4555 4.3063L29.2061 3.35643C28.6653 2.95446 28.0255 2.58771 27.3907 2.236C26.6179 1.8079 26.154 1.63908 25.382 1.30388C24.1556 0.77142 21.98 0.256228 20.659 0.128717C19.7533 0.041293 18.7473 -0.0353477 17.821 0.0171981C16.9566 0.0661799 15.9828 0.126585 15.1557 0.299118L13.9434 0.561694C13.5509 0.652499 13.1498 0.773522 12.8148 0.874654L12.8146 0.874806Z" fill="#A3A3A3"/>
</svg>
