<svg width="30" height="38" viewBox="0 0 30 38" fill="none" xmlns="http://www.w3.org/2000/svg">
<path fill-rule="evenodd" clip-rule="evenodd" d="M1.48087 5.55318L6.53666 4.03767C6.80914 3.95344 7.08925 3.88039 7.36979 3.79105L9.05096 3.28178C9.19725 3.23417 9.35095 3.18853 9.47783 3.15334L14.9628 1.51169C15.0835 1.51169 15.6597 1.7124 15.8023 1.75197C16.0895 1.83165 16.3792 1.91574 16.6556 2.00936L18.3386 2.51674C19.719 2.91099 21.1599 3.38911 22.5344 3.78166C23.908 4.17394 25.4048 4.67846 26.7545 5.05303L28.4447 5.55318C28.4447 9.17305 28.4447 12.7929 28.4447 16.4128C28.4447 20.6265 28.6232 23.3477 26.8097 26.9947C26.4837 27.6502 25.6953 28.8645 25.1817 29.4392C24.9615 29.6857 24.7681 29.9156 24.5344 30.1492C24.3302 30.3534 24.061 30.6577 23.8479 30.8203L23.1172 31.447C21.9579 32.3817 20.2672 33.4375 18.9028 34.0199C18.7415 34.0887 18.6085 34.1587 18.4384 34.2342C18.2665 34.3106 18.1391 34.3692 17.9643 34.4387C17.6271 34.5729 17.3317 34.6882 16.99 34.8219C16.6572 34.9522 16.3384 35.0668 15.9925 35.1819C15.8122 35.242 15.6489 35.2993 15.4836 35.3517C14.8612 35.5493 15.0532 35.5554 14.4423 35.3515C13.0938 34.9013 12.3549 34.614 11.0049 34.0377C9.54738 33.4154 7.59682 32.1969 6.42427 31.1524C6.34942 31.0857 6.31519 31.074 6.23906 30.9982C5.96151 30.722 5.67068 30.5144 5.37722 30.1633C5.30978 30.0826 5.30099 30.0575 5.222 29.9792C4.24138 29.0066 3.21793 27.272 2.71051 26.0427C2.13477 24.6479 1.61966 22.6573 1.54316 21.1016C1.53184 20.872 1.52475 20.6993 1.51183 20.4541L1.48087 5.55318ZM0 5.02874V19.5288C0 23.8956 1.36558 28.2832 4.404 31.3216C5.53579 32.4534 6.67089 33.3787 8.08147 34.1846C8.19293 34.2483 8.28573 34.3099 8.41178 34.3787C9.47967 34.9619 10.7094 35.5767 11.8514 35.9986C12.3553 36.1848 12.8242 36.3651 13.3469 36.5394C13.821 36.6975 14.6038 37.0214 15.0245 37.0214C15.196 37.0214 16.3055 36.6302 16.5554 36.547C18.1914 36.0019 19.3101 35.5087 20.8348 34.7487L21.4722 34.3989C22.296 33.9735 23.8308 32.9057 24.4727 32.3089L25.5216 31.3216C25.9635 30.8797 26.5336 30.202 26.9024 29.679C27.3589 29.0318 27.6944 28.5264 28.0642 27.7866C29.29 25.3348 29.9256 22.7052 29.9256 19.4979V5.02874C29.9256 4.31489 29.1658 4.23066 28.4578 4.02843C26.9063 3.58536 25.2478 3.04781 23.6739 2.58041L16.9411 0.551495C16.6077 0.448446 15.262 0 14.932 0C14.7327 0 14.5822 0.0751244 14.4318 0.11685C14.2637 0.163544 14.1247 0.203567 13.9563 0.258404L11.0886 1.12369C9.85787 1.47516 8.46082 1.95052 7.25004 2.28299C6.03806 2.61578 4.64161 3.09096 3.41142 3.44229C2.75131 3.63082 2.14691 3.82721 1.49191 4.02171C0.781377 4.23269 0 4.31361 0 5.02874H0Z" fill="#A3A3A3"/>
<path fill-rule="evenodd" clip-rule="evenodd" d="M14.2222 3.85646C14.2222 4.50539 14.9532 4.59124 15.2905 4.70105L22.7569 6.95267C22.9169 7.00014 25.5995 7.83267 25.7605 7.83626V19.5905C25.7605 21.7821 25.3577 23.7452 24.3726 25.6378L23.8108 26.5568C23.6097 26.8599 23.3982 27.1226 23.1734 27.4002C22.7831 27.8823 22.499 28.1433 22.0657 28.5447C21.9306 28.6699 21.821 28.778 21.679 28.8983L19.9609 30.142C19.8216 30.2347 19.6473 30.3385 19.4978 30.4193C18.9774 30.7007 18.5874 30.9325 18.0276 31.2013L14.9812 32.4135C14.8666 32.4333 14.6207 32.307 14.2903 32.6162C13.9895 32.8978 13.9821 33.4315 14.3487 33.7173C14.9298 34.1705 15.5042 33.7792 16.2315 33.5392C17.1766 33.2272 17.772 32.9226 18.6074 32.5832C19.5859 32.1857 20.8798 31.3945 21.781 30.7589C22.3224 30.377 23.3584 29.5017 23.7936 29.0076C24.4748 28.234 24.6432 28.0041 25.2365 27.1186C25.5251 26.6877 25.7332 26.2129 25.9664 25.7506C26.7559 24.1854 27.2414 21.6548 27.2414 19.4672V7.28095C27.2414 7.00603 27.0281 6.75761 26.8418 6.66247C26.6725 6.57598 24.7042 6.00673 24.4841 5.9351L21.3069 4.97818C20.2418 4.66194 19.2258 4.33302 18.1533 4.02856C17.6544 3.88692 15.1322 3.08521 14.9627 3.08521C14.7707 3.08521 14.5514 3.20758 14.4446 3.30759C14.3179 3.42619 14.2222 3.6195 14.2222 3.85646Z" fill="#A3A3A3"/>
<path fill-rule="evenodd" clip-rule="evenodd" d="M3.02344 7.55861V19.5597C3.02344 22.7628 3.81199 25.5557 5.70749 27.9821L7.20616 29.5376C7.58947 29.8354 8.00567 30.3576 8.51493 30.3576C8.77283 30.3576 8.9907 30.1766 9.0966 30.0137C9.29387 29.7102 9.23121 29.2726 8.93426 29.0436L7.68966 27.9743C6.55433 26.839 5.71959 25.5662 5.19464 23.9906C4.89791 23.1 4.60768 21.8617 4.56577 20.8865C4.55468 20.6284 4.50361 20.2842 4.50325 20.0235L4.5043 7.99049C4.50435 7.5535 4.52192 7.19605 4.14156 6.96493C3.84364 6.78399 3.4896 6.83474 3.26109 7.05583C3.14751 7.16569 3.02344 7.35044 3.02344 7.55861Z" fill="#A3A3A3"/>
<path fill-rule="evenodd" clip-rule="evenodd" d="M12.7415 22.3671L9.38644 19.0274C9.04196 18.6829 9.00382 18.6341 8.60745 18.6341C8.24807 18.6341 7.92871 18.9937 7.92871 19.3436C7.92871 19.8054 8.54972 20.2886 8.95451 20.6934L11.9471 23.6859C12.2575 23.9964 12.3506 24.1564 12.8032 24.1564C13.1303 24.1564 13.3741 23.8478 13.5514 23.6705L21.6498 15.5721C21.8598 15.3623 22.087 15.1549 21.9964 14.7487C21.9119 14.3697 21.6258 14.1606 21.2256 14.1606C20.8526 14.1606 20.3823 14.7417 20.0609 15.0631C19.4506 15.6734 12.9042 22.2581 12.7415 22.3671Z" fill="#A3A3A3"/>
</svg>
