<svg width="42" height="28" viewBox="0 0 42 28" fill="none" xmlns="http://www.w3.org/2000/svg">
<path fill-rule="evenodd" clip-rule="evenodd" d="M4.7656 11.583L37.3795 11.5961L37.3622 12.9408L4.75613 12.926L4.7656 11.583ZM3.37025 12.9392C2.63401 12.9472 2.11183 12.9774 2.03546 12.2557L2.02662 2.26897C2.04291 1.50094 2.34325 1.38473 3.10942 1.38652L37.0374 1.38795C39.3214 1.38795 40.0886 1.0856 40.0958 2.33663L40.094 10.3626C40.094 12.3967 40.432 13.0753 38.7551 12.926C38.4526 10.2161 39.5982 10.2247 36.3575 10.2247H10.8615C1.52607 10.2247 3.73155 9.68735 3.37025 12.9392V12.9392ZM34.7844 14.3077C35.9659 14.2552 39.0041 14.4651 39.9094 14.2353C41.7524 13.7676 41.4567 11.8896 41.4567 10.6345C41.4567 8.9121 41.4567 7.18969 41.4567 5.46731C41.4567 2.85311 42.0673 0.0430288 39.1455 0.0270006C38.2849 0.0222649 37.4223 0.0279278 36.5615 0.0279278C25.4041 0.0279278 14.1134 -0.0342645 2.97444 0.0269674C0.054084 0.0429957 0.671437 2.89792 0.671437 5.46731C0.671437 7.18972 0.671437 8.91213 0.671437 10.6345C0.671437 11.3319 0.583514 12.4488 0.837548 13.0433C1.0885 13.6307 1.52878 14.055 2.21833 14.2342C2.88751 14.4082 6.35392 14.3123 7.27303 14.2952C7.04456 15.5166 6.32902 17.2621 5.85331 18.3423C4.59727 21.1944 3.07455 23.4714 1.10344 25.7602C0.671007 26.2623 -0.0781825 26.7944 0.00662824 27.3408C0.0560377 27.6593 0.304079 27.9261 0.724456 27.8892C1.31568 27.8374 2.93543 25.6658 3.39336 25.1261C5.69766 22.4103 7.7406 17.972 8.68965 14.2993L33.366 14.3236C33.5528 14.719 33.7061 15.9364 33.8633 16.4626C34.0644 17.1355 34.2497 17.8109 34.4969 18.4812C34.9717 19.7692 35.4787 20.9406 36.1256 22.0874C36.8838 23.4313 38.3254 25.6423 39.38 26.7182C39.6467 26.9904 39.7733 27.1229 40.0004 27.3881C40.8732 28.4071 41.4298 27.5934 41.438 27.2241C41.4482 26.7583 40.6545 26.1121 40.3515 25.7452C39.3076 24.4811 38.5359 23.5392 37.6228 21.9468C36.9566 20.785 36.4532 19.7138 35.9319 18.4012C35.5109 17.3411 34.93 15.4831 34.7845 14.3077L34.7844 14.3077Z" fill="#A3A3A3"/>
<path fill-rule="evenodd" clip-rule="evenodd" d="M3.97698 2.77729C3.21537 2.93165 3.25786 3.80939 3.79107 4.03376C4.20528 4.20805 19.0136 4.10333 19.8359 4.10333C20.2478 4.10333 37.7182 4.16543 38.177 4.08171C38.8738 3.95454 38.8911 3.02643 38.3229 2.81157C37.8667 2.639 15.0164 2.74699 13.105 2.74699C11.8585 2.74699 4.53979 2.66324 3.97695 2.77729H3.97698Z" fill="#A3A3A3"/>
<path fill-rule="evenodd" clip-rule="evenodd" d="M3.96081 5.49187C3.47662 5.59904 3.21195 6.10118 3.52808 6.5448C3.79834 6.92405 4.44875 6.82834 5.01434 6.82825C7.37722 6.82765 29.4763 6.91432 30.015 6.80314C30.5137 6.70028 30.7381 6.15817 30.4338 5.74925C30.1424 5.35782 29.5144 5.46352 28.9465 5.46366C26.6241 5.46419 4.44981 5.38358 3.96081 5.49184V5.49187Z" fill="#A3A3A3"/>
<path fill-rule="evenodd" clip-rule="evenodd" d="M20.3843 25.8166C19.9093 25.6085 19.2596 24.9581 18.7966 24.6614C17.9522 24.1204 17.3178 25.1215 17.8991 25.693C18.0673 25.8583 18.4528 26.1086 18.6748 26.2781C21.358 28.3271 20.8279 28.2551 22.7074 26.8328L24.2566 25.6606C24.8238 25.0467 24.0938 24.1468 23.289 24.6955C22.9592 24.9204 22.0316 25.7171 21.7451 25.7975L21.7452 19.677C21.7475 19.0594 21.7486 18.3967 21.0604 18.3989C20.3406 18.4013 20.3849 19.0509 20.3863 19.7451L20.3843 25.8166V25.8166Z" fill="#A3A3A3"/>
<path fill-rule="evenodd" clip-rule="evenodd" d="M10.1873 25.8229C9.67378 25.5769 9.09133 24.9746 8.59985 24.6602C7.75632 24.1206 7.12466 25.1212 7.70293 25.6909C7.8603 25.8459 8.27793 26.1302 8.47765 26.2771C11.1565 28.2484 10.5188 28.3401 12.5105 26.8338L14.0614 25.6631C14.6283 25.048 13.9 24.1427 13.0928 24.6974C12.7654 24.9224 11.8373 25.7212 11.5508 25.7987L11.5506 19.6769C11.553 19.0573 11.5535 18.3943 10.8625 18.3989C10.1455 18.4038 10.1881 19.0538 10.1894 19.745L10.1873 25.8229Z" fill="#A3A3A3"/>
<path fill-rule="evenodd" clip-rule="evenodd" d="M30.5809 25.8095C30.1389 25.6369 29.4322 24.9394 28.9936 24.6624C28.1501 24.1296 27.511 25.1096 28.0981 25.6922L29.6522 26.8576C29.9549 27.0752 30.8867 27.8857 31.2582 27.8865C31.6312 27.8872 32.5921 27.0573 32.9077 26.8339L34.4535 25.6593C35.0186 25.0499 34.3188 24.1288 33.4856 24.6932C33.1426 24.9255 32.2474 25.7037 31.9396 25.7994L31.9391 19.6768C31.9413 19.0574 31.9426 18.3985 31.2587 18.3987C30.5393 18.3988 30.5807 19.0495 30.5823 19.7449L30.5809 25.8095H30.5809Z" fill="#A3A3A3"/>
<path fill-rule="evenodd" clip-rule="evenodd" d="M35.1463 5.51891C34.2601 5.82481 34.7133 7.04176 35.5555 6.77531C36.386 6.5125 35.9744 5.23309 35.1463 5.51891Z" fill="#A3A3A3"/>
<path fill-rule="evenodd" clip-rule="evenodd" d="M32.4619 5.50063C31.5902 5.73969 31.9324 6.99649 32.7814 6.79137C33.6232 6.58793 33.3246 5.26398 32.4619 5.50063Z" fill="#A3A3A3"/>
<path fill-rule="evenodd" clip-rule="evenodd" d="M37.8608 5.52047C36.9881 5.81523 37.4442 7.04805 38.2742 6.77412C39.0799 6.50823 38.7122 5.23292 37.8608 5.52047Z" fill="#A3A3A3"/>
</svg>
